<svg width="60" height="60" viewBox="0 0 60 60" fill="none" xmlns="http://www.w3.org/2000/svg">
<g clip-path="url(#clip0)">
<path d="M60 30C60.0054 34.0611 59.1833 38.0807 57.584 41.8136L57.4846 42.0426C54.7794 48.197 50.0885 53.2664 44.1622 56.4403C38.2358 59.6142 31.4164 60.7091 24.7944 59.55C24.6142 59.518 24.4343 59.4849 24.2547 59.4506C22.3991 59.0909 20.582 58.555 18.8281 57.8503C18.5432 57.7358 18.2604 57.6172 17.9796 57.4944C17.7879 57.4109 17.5962 57.3248 17.4062 57.2361C12.2103 54.8279 7.81111 50.9846 4.72716 46.159C1.64321 41.3335 0.00305029 35.7268 0 30C0 13.4317 13.4317 0 30 0C46.5683 0 60 13.4317 60 30Z" fill="#6C63FF"/>
<path opacity="0.2" d="M24.7944 59.55C24.6142 59.518 24.4344 59.4849 24.2548 59.4506C24.1376 56.0503 23.7355 49.0713 22.3642 41.7621C21.6142 37.7618 20.5731 33.6612 19.129 29.9956C18.6343 28.7272 18.0692 27.4874 17.4364 26.282C15.9773 23.526 14.2074 21.2059 12.0613 19.634L12.3773 19.2027C14.1622 20.511 15.7663 22.3476 17.1897 24.7127C17.6166 25.421 18.0267 26.1766 18.4199 26.9796C18.8415 27.8388 19.2435 28.7509 19.6261 29.716C19.8702 30.3302 20.106 30.9657 20.3335 31.6225C21.324 34.4743 22.166 37.7281 22.8595 41.384C23.0131 42.1917 23.1592 43.0192 23.298 43.8666C24.3728 50.4319 24.6968 56.5021 24.7944 59.55Z" fill="black"/>
<path opacity="0.2" d="M17.9796 57.4944C17.7878 57.411 17.5961 57.3249 17.4062 57.2361C17.2207 55.2213 16.8799 52.7219 16.2568 50.3494C15.9839 49.2839 15.6336 48.2397 15.2086 47.2252C14.4976 45.561 13.5772 44.1462 12.387 43.2737L12.7029 42.8432C13.9491 43.7556 14.9103 45.1979 15.6532 46.8852C16.4902 48.7864 17.0485 50.9991 17.4204 53.1133C17.6964 54.6834 17.8704 56.2003 17.9796 57.4944Z" fill="black"/>
<path opacity="0.2" d="M9.07647 19.6216C10.5514 19.6216 11.7471 18.426 11.7471 16.951C11.7471 15.4761 10.5514 14.2805 9.07647 14.2805C7.60154 14.2805 6.40588 15.4761 6.40588 16.951C6.40588 18.426 7.60154 19.6216 9.07647 19.6216Z" fill="black"/>
<path opacity="0.2" d="M9.9367 42.6106C11.4116 42.6106 12.6073 41.4149 12.6073 39.94C12.6073 38.4651 11.4116 37.2694 9.9367 37.2694C8.46177 37.2694 7.26611 38.4651 7.26611 39.94C7.26611 41.4149 8.46177 42.6106 9.9367 42.6106Z" fill="black"/>
<path opacity="0.2" d="M19.6788 21.4368C19.1125 24.6318 20.3627 27.5249 20.3627 27.5249C20.3627 27.5249 22.531 25.2378 23.0973 22.0427C23.6636 18.8477 22.4135 15.9547 22.4135 15.9547C22.4135 15.9547 20.2451 18.2418 19.6788 21.4368Z" fill="black"/>
<path opacity="0.2" d="M10.8034 29.0211C13.8509 30.1355 16.9132 29.4204 16.9132 29.4204C16.9132 29.4204 15.0346 26.8985 11.9871 25.7842C8.93961 24.6698 5.87732 25.3849 5.87732 25.3849C5.87732 25.3849 7.75597 27.9068 10.8034 29.0211Z" fill="black"/>
<path opacity="0.2" d="M10.2867 49.3787C12.4227 50.1597 14.5722 49.6502 14.5722 49.6502C14.5722 49.6502 13.2584 47.8743 11.1224 47.0933C8.98636 46.3122 6.83691 46.8217 6.83691 46.8217C6.83691 46.8217 8.15067 48.5976 10.2867 49.3787Z" fill="black"/>
<path d="M29.9384 36.6434C36.3977 36.6434 41.6339 31.4071 41.6339 24.9478C41.6339 18.4885 36.3977 13.2523 29.9384 13.2523C23.4791 13.2523 18.2428 18.4885 18.2428 24.9478C18.2428 31.4071 23.4791 36.6434 29.9384 36.6434Z" fill="#D0CDE1"/>
<path d="M25.3699 33.9022C25.3699 33.9022 26.8318 40.8465 26.8318 41.5775C26.8318 42.3084 33.7761 45.5978 33.7761 45.5978L39.9893 44.5014L42.1823 37.9226C42.1823 37.9226 38.5274 32.4403 38.5274 30.2474L25.3699 33.9022Z" fill="#D0CDE1"/>
<path d="M57.5839 41.8136L57.4845 42.0426C54.7792 48.197 50.0884 53.2664 44.162 56.4403C38.2357 59.6141 31.4163 60.7091 24.7942 59.55C24.6141 59.518 24.4342 59.4849 24.2546 59.4506C22.399 59.0909 20.5819 58.555 18.828 57.8503C18.5431 57.7358 18.2602 57.6171 17.9795 57.4944C17.7877 57.4109 17.596 57.3248 17.4061 57.2361C15.6844 56.4385 14.0424 55.4791 12.5022 54.371L11.1158 50.3494L11.8951 49.7547L13.4981 48.5308L15.2084 47.2251L15.6531 46.8852L22.3641 41.7621L22.8593 41.384L26.3475 38.7213L26.3484 38.7204C26.3484 38.7204 30.1206 44.8669 35.6031 43.0394C41.0857 41.2118 40.9658 35.9716 40.9658 35.9716L57.5839 41.8136Z" fill="#2F2E41"/>
<path d="M19.7959 15.5251C19.7959 15.5251 23.5092 7.47959 30.6264 9.33624C37.7435 11.1929 41.7663 13.9779 42.0757 16.7628C42.3852 19.5478 41.921 23.7253 41.921 23.7253C41.921 23.7253 41.1474 18.0006 36.1963 19.2384C31.2453 20.4761 23.5092 19.5478 23.5092 19.5478L22.2714 30.6877C22.2714 30.6877 20.879 28.6764 19.3317 29.9141C17.7845 31.1519 14.8448 18.0006 19.7959 15.5251Z" fill="#2F2E41"/>
<path d="M18.828 57.8503C18.5431 57.7358 18.2602 57.6172 17.9795 57.4944C17.7878 57.4109 17.596 57.3248 17.4061 57.2361C14.5587 55.9157 11.9355 54.1578 9.63184 52.026C10.4475 50.9148 11.1159 50.3494 11.1159 50.3494H16.5984L17.4203 53.1133L18.828 57.8503Z" fill="#2F2E41"/>
<path d="M52.7815 41.2118L57.4848 42.0426C56.2261 44.9099 54.5262 47.5625 52.4469 49.9039L52.7815 41.2118Z" fill="#2F2E41"/>
</g>
<defs>
<clipPath id="clip0">
<rect width="60" height="60" fill="white"/>
</clipPath>
</defs>
</svg>
