<svg width="570" height="370" viewBox="0 0 570 370" fill="none" xmlns="http://www.w3.org/2000/svg">
<g clip-path="url(#clip0)">
<path d="M436.405 365.816C429.108 359.121 424.675 348.545 425.838 338.249C427 327.952 434.2 318.487 443.539 316.301C452.879 314.114 463.525 320.167 466.362 330.072C467.923 310.975 469.722 291.078 479.073 274.815C487.541 260.089 502.206 249.552 518.101 247.667C533.995 245.782 550.73 252.902 560.643 266.523C570.556 280.144 572.983 299.946 566.04 315.584C560.926 327.104 551.503 335.677 541.631 342.652C509.729 365 471.467 374.088 433.885 368.244L436.405 365.816Z" fill="#F2F2F2"/>
<path d="M544.925 253.296C531.81 264.894 519.779 277.866 509.005 292.024C492.143 314.104 478.498 338.861 468.546 365.431C467.818 367.369 470.717 368.213 471.437 366.296C487.721 323.115 513.716 285.055 547.045 255.598C548.542 254.275 546.41 251.984 544.925 253.296Z" fill="white"/>
<path d="M183.492 363.997C193.515 354.801 199.604 340.275 198.007 326.133C196.41 311.991 186.521 298.991 173.694 295.988C160.866 292.985 146.244 301.298 142.348 314.903C140.203 288.673 137.732 261.344 124.888 239.007C113.258 218.781 93.1146 204.308 71.2835 201.719C49.4525 199.13 26.4671 208.909 12.8519 227.617C-0.763339 246.326 -4.09697 273.524 5.43879 295.003C12.4634 310.826 25.4054 322.601 38.9652 332.181C82.226 362.744 135.891 375.491 186.954 367.332" fill="#F2F2F2"/>
<path d="M34.4402 209.451C52.4536 225.381 68.9789 243.198 83.7772 262.643C98.5779 282.069 111.608 303.007 122.685 325.164C128.877 337.593 134.439 350.38 139.347 363.468C140.347 366.13 136.366 367.289 135.376 364.656C126.683 341.583 115.929 319.49 103.267 298.695C90.6661 277.975 76.244 258.631 60.2031 240.935C51.1302 230.93 41.5576 221.475 31.5286 212.612C29.473 210.795 32.4015 207.649 34.4402 209.451L34.4402 209.451Z" fill="white"/>
<path d="M409.155 369.19H170.017V102.79C170.017 46.1113 212.487 0 264.689 0H314.483C366.685 0 409.155 46.1113 409.155 102.79V369.19Z" fill="#F2F2F2"/>
<path d="M359.362 369.19H170.017V102.789C169.965 81.0714 176.299 59.9023 188.097 42.3643C188.532 41.7207 188.966 41.0854 189.413 40.4571C195.12 32.3307 201.911 25.1739 209.563 19.2229C209.995 18.8815 210.429 18.5459 210.869 18.2104C217.272 13.3999 224.197 9.46732 231.489 6.50232C231.922 6.32413 232.363 6.1456 232.803 5.97435C239.398 3.41924 246.234 1.669 253.185 0.755953C253.616 0.692038 254.058 0.642024 254.501 0.592009C261.274 -0.194366 268.106 -0.194366 274.88 0.592009C275.321 0.642024 275.764 0.692032 276.2 0.756637C283.149 1.66975 289.983 3.41977 296.576 5.97439C297.017 6.14563 297.458 6.32415 297.892 6.50269C305.093 9.43029 311.938 13.3041 318.272 18.0378C318.712 18.366 319.152 18.7016 319.586 19.0371C323.875 22.361 327.904 26.0641 331.631 30.1085C334.62 33.3526 337.405 36.8106 339.967 40.4592C340.413 41.0855 340.847 41.7207 341.281 42.3633C353.08 59.9015 359.414 81.071 359.362 102.789V369.19Z" fill="#CCCCCC"/>
<path d="M343.965 250.039C349.755 250.039 354.448 244.943 354.448 238.658C354.448 232.372 349.755 227.276 343.965 227.276C338.176 227.276 333.483 232.372 333.483 238.658C333.483 244.943 338.176 250.039 343.965 250.039Z" fill="#70FF63"/>
<path d="M389.565 361.211H381.533L377.711 327.573L389.566 327.573L389.565 361.211Z" fill="#FFB8B8"/>
<path d="M375.795 358.719H391.286V369.309H366.041C366.041 367.918 366.294 366.541 366.784 365.256C367.274 363.971 367.992 362.804 368.898 361.821C369.804 360.837 370.879 360.057 372.062 359.525C373.246 358.993 374.514 358.719 375.795 358.719Z" fill="#2F2E41"/>
<path d="M429.53 361.211H421.498L417.676 327.573L429.532 327.573L429.53 361.211Z" fill="#FFB8B8"/>
<path d="M415.76 358.719H431.251V369.309H406.007C406.007 367.918 406.259 366.541 406.749 365.256C407.24 363.971 407.958 362.804 408.864 361.821C409.769 360.837 410.845 360.057 412.028 359.525C413.211 358.993 414.48 358.719 415.76 358.719Z" fill="#2F2E41"/>
<path d="M349.271 240.912C348.693 239.988 348.309 238.937 348.145 237.834C347.982 236.731 348.043 235.603 348.325 234.528C348.607 233.454 349.102 232.459 349.776 231.615C350.45 230.771 351.286 230.098 352.226 229.642L379.531 147.932L392.967 155.893L361.79 233.978C362.39 235.743 362.373 237.685 361.742 239.437C361.111 241.189 359.91 242.628 358.367 243.483C356.824 244.338 355.046 244.548 353.369 244.074C351.693 243.6 350.234 242.475 349.271 240.912Z" fill="#FFB8B8"/>
<path d="M425.427 256.266C424.535 255.71 423.765 254.949 423.173 254.035C422.58 253.122 422.18 252.078 421.999 250.979C421.818 249.879 421.862 248.749 422.127 247.67C422.392 246.59 422.871 245.587 423.532 244.73L415.073 158.295L430.363 159.053L433.879 244.074C435.131 245.374 435.899 247.128 436.04 249.003C436.18 250.877 435.682 252.743 434.641 254.246C433.599 255.749 432.086 256.784 430.388 257.157C428.689 257.529 426.925 257.212 425.427 256.266Z" fill="#FFB8B8"/>
<path d="M401.035 132.797C409.922 132.797 417.126 124.975 417.126 115.326C417.126 105.676 409.922 97.8542 401.035 97.8542C392.148 97.8542 384.943 105.676 384.943 115.326C384.943 124.975 392.148 132.797 401.035 132.797Z" fill="#FFB8B8"/>
<path d="M425.325 236.608H376.811L376.869 236.198C376.957 235.585 385.516 174.71 379.203 154.794C378.57 152.837 378.625 150.695 379.359 148.779C380.094 146.864 381.454 145.311 383.179 144.42H383.18C392.202 139.807 409.522 134.126 424.141 147.912C426.292 149.974 427.972 152.552 429.048 155.44C430.123 158.329 430.565 161.449 430.339 164.555L425.325 236.608Z" fill="#70FF63"/>
<path d="M386.129 183.706L364.288 178.895L374.525 152.554C375.138 150.003 376.658 147.82 378.751 146.483C380.844 145.147 383.34 144.766 385.692 145.425C388.043 146.084 390.057 147.729 391.293 149.999C392.529 152.268 392.886 154.977 392.284 157.532L386.129 183.706Z" fill="#70FF63"/>
<path d="M414.102 192.639L412.789 159.959C411.793 153.815 415.032 148.008 420.014 147.059C424.997 146.113 429.862 150.374 430.862 156.562L435.798 187.099L414.102 192.639Z" fill="#70FF63"/>
<path d="M423.711 232.695C431.517 264.974 432.368 306.014 430.262 350.779L419.78 349.357L400.78 263.995L390.297 350.779L378.504 350.068C374.98 303.098 371.55 262.775 377.193 236.252L423.711 232.695Z" fill="#2F2E41"/>
<path d="M411.638 128.828C408.636 132.3 403.061 130.436 402.67 125.693C402.639 125.325 402.641 124.954 402.676 124.586C402.878 122.485 403.996 120.578 403.728 118.36C403.668 117.807 403.478 117.281 403.178 116.831C400.786 113.353 395.17 118.387 392.913 115.238C391.528 113.307 393.155 110.268 392.093 108.11C390.691 105.262 386.538 106.667 383.934 105.107C381.036 103.372 381.209 98.5449 383.117 95.6088C385.443 92.0282 389.522 90.1176 393.549 89.8422C397.577 89.5668 401.577 90.749 405.337 92.3401C409.61 94.1478 413.847 96.6462 416.476 100.725C419.673 105.685 419.981 112.354 418.382 118.154C417.409 121.683 414.089 125.993 411.638 128.828Z" fill="#2F2E41"/>
<path d="M550.333 369.648H66.6229C66.4164 369.647 66.2186 369.558 66.0728 369.399C65.927 369.24 65.8451 369.025 65.8451 368.801C65.8451 368.577 65.927 368.362 66.0728 368.203C66.2186 368.044 66.4164 367.955 66.6229 367.954H550.333C550.539 367.955 550.737 368.044 550.883 368.203C551.029 368.362 551.111 368.577 551.111 368.801C551.111 369.025 551.029 369.24 550.883 369.399C550.737 369.558 550.539 369.647 550.333 369.648Z" fill="#3F3D56"/>
<path d="M307.276 292.009H222.103C220.982 292.015 219.903 291.539 219.105 290.683C218.307 289.827 217.853 288.663 217.845 287.445V81.0335C217.853 79.8156 218.307 78.6512 219.105 77.7957C219.903 76.9402 220.982 76.4634 222.103 76.47H307.276C308.398 76.4634 309.476 76.9402 310.274 77.7957C311.073 78.6512 311.526 79.8156 311.534 81.0335V287.445C311.526 288.663 311.073 289.827 310.274 290.683C309.476 291.539 308.398 292.015 307.276 292.009Z" fill="white"/>
<path d="M311.534 143.258H217.845V144.681H311.534V143.258Z" fill="#CCCCCC"/>
<path d="M311.862 224.431H218.172V225.853H311.862V224.431Z" fill="#CCCCCC"/>
<path d="M248.638 76.47H247.328V292.72H248.638V76.47Z" fill="#CCCCCC"/>
<path d="M281.396 76.47H280.086V292.72H281.396V76.47Z" fill="#CCCCCC"/>
</g>
<defs>
<clipPath id="clip0">
<rect width="570" height="370" fill="white"/>
</clipPath>
</defs>
</svg>
