<svg width="570" height="371" viewBox="0 0 570 371" fill="none" xmlns="http://www.w3.org/2000/svg">
<g clip-path="url(#clip0)">
<g opacity="0.5">
<path opacity="0.5" d="M215.775 27.1832L69.0201 27.4722C67.4209 27.4748 65.8885 27.992 64.7596 28.9102C63.6308 29.8283 62.9979 31.0723 63 32.3685L63.6685 251.647C63.6706 252.29 63.8287 252.925 64.1338 253.518C64.4389 254.11 64.8851 254.648 65.4467 255.101C66.0084 255.554 66.6745 255.913 67.4072 256.157C68.1399 256.401 68.9247 256.526 69.7169 256.524L216.472 256.235C218.071 256.232 219.603 255.714 220.731 254.795C221.859 253.876 222.491 252.632 222.488 251.335L221.807 32.0566C221.802 30.7626 221.164 29.523 220.033 28.6096C218.903 27.6961 217.371 27.1832 215.775 27.1832Z" fill="url(#paint0_linear)"/>
<path opacity="0.5" d="M214.145 26.9972L70.6679 27.2813C67.6161 27.2874 65.1481 29.2977 65.1556 31.7716L65.8101 248.912C65.8176 251.386 68.2976 253.386 71.3495 253.38L214.826 253.096C217.878 253.09 220.346 251.08 220.339 248.606L219.684 31.4655C219.677 28.9917 217.197 26.9911 214.145 26.9972Z" fill="white"/>
<path opacity="0.5" d="M215.981 89.6511L215.828 37.4364C215.823 36.175 215.201 34.9665 214.098 34.0767C212.995 33.1869 211.501 32.6885 209.945 32.6911L181.242 32.7469C180.803 35.1455 179.32 37.3374 177.06 38.9263C174.8 40.5153 171.914 41.3963 168.923 41.41L115.548 41.5151C112.557 41.5133 109.665 40.6439 107.396 39.064C105.126 37.4841 103.629 35.298 103.176 32.9013L74.9023 32.9571C73.3462 32.9606 71.8554 33.4648 70.7577 34.3589C69.6599 35.2531 69.0451 36.4639 69.0484 37.7254L69.2064 90.3802L69.6641 242.972C69.6716 244.233 70.2968 245.441 71.4021 246.329C72.5074 247.217 74.0025 247.713 75.5586 247.707L210.602 247.441C212.153 247.435 213.638 246.93 214.731 246.038C215.825 245.147 216.439 243.941 216.439 242.683L215.981 89.6511Z" fill="#BBBBBB"/>
<path opacity="0.5" d="M157.424 35.3277L124.613 35.727C124.166 35.7324 123.809 36.0308 123.815 36.3935L123.823 36.8237C123.83 37.1864 124.198 37.476 124.646 37.4705L157.457 37.0713C157.904 37.0658 158.261 36.7674 158.255 36.4047L158.247 35.9746C158.24 35.6119 157.872 35.3223 157.424 35.3277Z" fill="#DBDBDB"/>
<path opacity="0.5" d="M165.585 36.9725C166.299 36.9638 166.868 36.4878 166.858 35.9093C166.847 35.3308 166.26 34.8689 165.546 34.8776C164.832 34.8863 164.263 35.3623 164.273 35.9408C164.284 36.5193 164.871 36.9812 165.585 36.9725Z" fill="#DBDBDB"/>
<path opacity="0.5" d="M202.236 60.9954H130.291V65.6455H202.236V60.9954Z" fill="#E0E0E0"/>
<path opacity="0.5" d="M202.236 70.2955H130.291V74.9456H202.236V70.2955Z" fill="#E0E0E0"/>
<path opacity="0.5" d="M94.6358 77.1196C102.14 77.1196 108.224 72.1648 108.224 66.0527C108.224 59.9406 102.14 54.9858 94.6358 54.9858C87.1315 54.9858 81.0481 59.9406 81.0481 66.0527C81.0481 72.1648 87.1315 77.1196 94.6358 77.1196Z" fill="#F5F5F5"/>
<path opacity="0.5" d="M100.49 73.7995H88.7049C88.1395 73.803 87.5835 73.9171 87.0842 74.1321C86.5848 74.347 86.1569 74.6565 85.8367 75.0343C88.4847 76.2658 91.4811 76.9203 94.5339 76.9341C97.5868 76.948 100.592 76.3206 103.257 75.1131C102.958 74.7317 102.551 74.4135 102.069 74.1851C101.588 73.9566 101.047 73.8245 100.49 73.7995Z" fill="#70FF63"/>
<path opacity="0.5" d="M88.8021 66.3351C88.8021 66.3351 87.0763 70.4072 86.1323 70.0263C86.1323 70.0263 95.2232 76.3906 103.249 70.0263C102.283 68.6884 101.123 67.4492 99.793 66.3351H88.8021Z" fill="#333333"/>
<path opacity="0.5" d="M94.6279 71.4285C98.3576 71.4285 101.381 68.9776 101.381 65.9542C101.381 62.9308 98.3576 60.4798 94.6279 60.4798C90.8981 60.4798 87.8745 62.9308 87.8745 65.9542C87.8745 68.9776 90.8981 71.4285 94.6279 71.4285Z" fill="#333333"/>
<path opacity="0.1" d="M92.2537 71.9014H96.9652V73.3857C96.9652 73.8508 96.7373 74.2969 96.3316 74.6257C95.9259 74.9546 95.3756 75.1394 94.8019 75.1394H94.3967C93.823 75.1394 93.2727 74.9546 92.867 74.6257C92.4613 74.2969 92.2334 73.8508 92.2334 73.3857V71.9014H92.2537Z" fill="black"/>
<path opacity="0.5" d="M92.7521 71.8094H96.4711C96.6033 71.8094 96.73 71.852 96.8235 71.9278C96.9169 72.0035 96.9694 72.1062 96.9694 72.2134V73.3036C96.9694 73.7687 96.7415 74.2148 96.3358 74.5436C95.9301 74.8725 95.3798 75.0573 94.8061 75.0573H94.4009C93.83 75.0538 93.2839 74.8675 92.8817 74.539C92.4795 74.2105 92.2538 73.7665 92.2538 73.3036V72.2232C92.2522 72.1694 92.2639 72.1158 92.2882 72.0656C92.3125 72.0155 92.349 71.9698 92.3954 71.9312C92.4418 71.8927 92.4973 71.862 92.5586 71.8411C92.6198 71.8202 92.6856 71.8094 92.7521 71.8094Z" fill="#FDA57D"/>
<path opacity="0.1" d="M92.2659 72.3612C93.7858 72.8179 95.4574 72.8179 96.9774 72.3612V71.9178H92.2659V72.3612Z" fill="black"/>
<path opacity="0.5" d="M94.6279 72.6173C98.3576 72.6173 101.381 70.1664 101.381 67.143C101.381 64.1196 98.3576 61.6686 94.6279 61.6686C90.8981 61.6686 87.8745 64.1196 87.8745 67.143C87.8745 70.1664 90.8981 72.6173 94.6279 72.6173Z" fill="#FDA57D"/>
<path opacity="0.5" d="M88.1743 65.0642H101.049C101.049 65.0642 99.9512 60.8509 95.0816 61.1235C90.2121 61.3961 88.1743 65.0642 88.1743 65.0642Z" fill="#333333"/>
<path opacity="0.5" d="M88.0161 67.8654C88.3629 67.8654 88.6441 67.4376 88.6441 66.9098C88.6441 66.382 88.3629 65.9542 88.0161 65.9542C87.6693 65.9542 87.3882 66.382 87.3882 66.9098C87.3882 67.4376 87.6693 67.8654 88.0161 67.8654Z" fill="#FDA57D"/>
<path opacity="0.5" d="M101.207 67.8654C101.554 67.8654 101.835 67.4376 101.835 66.9098C101.835 66.382 101.554 65.9542 101.207 65.9542C100.86 65.9542 100.579 66.382 100.579 66.9098C100.579 67.4376 100.86 67.8654 101.207 67.8654Z" fill="#FDA57D"/>
<path opacity="0.1" d="M88.1743 65.2087H101.049C101.049 65.2087 99.9512 60.9954 95.0816 61.268C90.2121 61.5406 88.1743 65.2087 88.1743 65.2087Z" fill="black"/>
<path opacity="0.5" d="M202.236 96.416H130.291V101.066H202.236V96.416Z" fill="#E0E0E0"/>
<path opacity="0.5" d="M202.236 105.716H130.291V110.366H202.236V105.716Z" fill="#E0E0E0"/>
<path opacity="0.5" d="M94.6358 112.54C102.14 112.54 108.224 107.585 108.224 101.473C108.224 95.3612 102.14 90.4064 94.6358 90.4064C87.1315 90.4064 81.0481 95.3612 81.0481 101.473C81.0481 107.585 87.1315 112.54 94.6358 112.54Z" fill="#E0E0E0"/>
<path opacity="0.5" d="M202.236 131.837H130.291V136.487H202.236V131.837Z" fill="#E0E0E0"/>
<path opacity="0.5" d="M202.236 141.137H130.291V145.787H202.236V141.137Z" fill="#E0E0E0"/>
<path opacity="0.5" d="M94.6358 147.961C102.14 147.961 108.224 143.006 108.224 136.894C108.224 130.782 102.14 125.827 94.6358 125.827C87.1315 125.827 81.0481 130.782 81.0481 136.894C81.0481 143.006 87.1315 147.961 94.6358 147.961Z" fill="#E0E0E0"/>
<path opacity="0.5" d="M202.236 167.257H130.291V171.907H202.236V167.257Z" fill="#E0E0E0"/>
<path opacity="0.5" d="M202.236 176.557H130.291V181.208H202.236V176.557Z" fill="#E0E0E0"/>
<path opacity="0.5" d="M94.6358 183.382C102.14 183.382 108.224 178.427 108.224 172.315C108.224 166.203 102.14 161.248 94.6358 161.248C87.1315 161.248 81.0481 166.203 81.0481 172.315C81.0481 178.427 87.1315 183.382 94.6358 183.382Z" fill="#E0E0E0"/>
<path opacity="0.5" d="M202.236 202.678H130.291V207.328H202.236V202.678Z" fill="#E0E0E0"/>
<path opacity="0.5" d="M202.236 211.978H130.291V216.628H202.236V211.978Z" fill="#E0E0E0"/>
<path opacity="0.5" d="M94.6358 218.802C102.14 218.802 108.224 213.847 108.224 207.735C108.224 201.623 102.14 196.668 94.6358 196.668C87.1315 196.668 81.0481 201.623 81.0481 207.735C81.0481 213.847 87.1315 218.802 94.6358 218.802Z" fill="#E0E0E0"/>
</g>
<path d="M310.229 54.7329L163.47 55.0219C161.871 55.0254 160.339 55.5434 159.211 56.4622C158.083 57.381 157.451 58.6253 157.454 59.9216L158.122 278.127C158.124 278.769 158.283 279.404 158.588 279.997C158.893 280.589 159.339 281.128 159.901 281.58C160.462 282.033 161.128 282.392 161.861 282.636C162.594 282.88 163.379 283.005 164.171 283.003L310.934 282.714C312.53 282.709 314.059 282.191 315.185 281.274C316.311 280.357 316.943 279.115 316.942 277.821L316.273 59.6161C316.272 58.9737 316.115 58.3378 315.811 57.7446C315.506 57.1515 315.061 56.6128 314.499 56.1593C313.938 55.7058 313.272 55.3464 312.539 55.1017C311.806 54.8569 311.021 54.7316 310.229 54.7329Z" fill="url(#paint1_linear)"/>
<path d="M308.597 53.4723L165.12 53.7565C162.068 53.7626 159.6 55.7729 159.608 58.2468L160.262 275.387C160.27 277.861 162.75 279.862 165.802 279.856L309.279 279.571C312.331 279.565 314.799 277.555 314.791 275.081L314.137 57.9407C314.129 55.4668 311.649 53.4663 308.597 53.4723Z" fill="white"/>
<path d="M310.435 116.484L310.281 63.8984C310.277 62.637 309.655 61.4285 308.552 60.5387C307.449 59.6489 305.955 59.1505 304.399 59.1531L275.688 59.2089C275.249 61.6075 273.765 63.7994 271.506 65.3883C269.246 66.9773 266.36 67.8583 263.369 67.872L209.998 67.9771C207.007 67.9753 204.115 67.1059 201.845 65.526C199.576 63.9461 198.079 61.7601 197.626 59.3633L169.352 59.4191C167.796 59.4226 166.305 59.9268 165.207 60.821C164.11 61.7151 163.495 62.926 163.498 64.1874L163.656 116.842" fill="#FAFAFA"/>
<path d="M163.656 116.845L164.114 269.437C164.118 270.699 164.74 271.907 165.843 272.797C166.946 273.687 168.44 274.185 169.996 274.183L305.039 273.917C306.595 273.913 308.086 273.409 309.184 272.515C310.282 271.621 310.897 270.41 310.893 269.148L310.431 116.116" fill="#FAFAFA"/>
<path d="M205.327 81.0308H176.636V104.288H205.327V81.0308Z" fill="#E0E0E0"/>
<g opacity="0.5">
<path opacity="0.5" d="M332 123.607H142.553V175.845H332V123.607Z" fill="url(#paint2_linear)"/>
</g>
<path d="M329.748 125.755H144.81V174.055H329.748V125.755Z" fill="white"/>
<path d="M290.512 143.642H218.566V148.293H290.512V143.642Z" fill="#70FF63"/>
<path d="M290.512 152.946H218.566V157.596H290.512V152.946Z" fill="#70FF63"/>
<path d="M290.512 195.164H218.566V199.814H290.512V195.164Z" fill="#E0E0E0"/>
<path d="M290.512 204.464H218.566V209.115H290.512V204.464Z" fill="#EEEEEE"/>
<path d="M270.649 99.6343H238.429V107.864H270.649V99.6343Z" fill="#70FF63"/>
<path d="M182.912 159.767C190.416 159.767 196.499 154.812 196.499 148.7C196.499 142.588 190.416 137.633 182.912 137.633C175.407 137.633 169.324 142.588 169.324 148.7C169.324 154.812 175.407 159.767 182.912 159.767Z" fill="#F5F5F5"/>
<path d="M188.766 156.447H176.977C176.411 156.45 175.855 156.564 175.356 156.779C174.857 156.994 174.429 157.304 174.108 157.681C176.756 158.913 179.753 159.567 182.806 159.581C185.859 159.595 188.864 158.968 191.529 157.76C191.23 157.379 190.823 157.061 190.343 156.833C189.862 156.604 189.322 156.472 188.766 156.447Z" fill="#70FF63"/>
<path d="M177.078 148.985C177.078 148.985 175.352 153.058 174.408 152.677C174.408 152.677 183.499 159.041 191.524 152.677C190.559 151.339 189.398 150.099 188.069 148.985H177.078Z" fill="#333333"/>
<path d="M182.904 154.079C186.633 154.079 189.657 151.628 189.657 148.605C189.657 145.581 186.633 143.13 182.904 143.13C179.174 143.13 176.15 145.581 176.15 148.605C176.15 151.628 179.174 154.079 182.904 154.079Z" fill="#333333"/>
<path opacity="0.1" d="M180.53 154.552H185.241V156.036C185.241 156.501 185.013 156.947 184.607 157.276C184.202 157.605 183.652 157.79 183.078 157.79H182.673C182.099 157.79 181.549 157.605 181.143 157.276C180.737 156.947 180.509 156.501 180.509 156.036V154.552H180.53Z" fill="black"/>
<path d="M181.028 154.46H184.747C184.879 154.46 185.006 154.502 185.099 154.578C185.193 154.654 185.245 154.757 185.245 154.864V155.944C185.246 156.175 185.19 156.404 185.081 156.617C184.972 156.83 184.813 157.024 184.611 157.187C184.41 157.351 184.171 157.48 183.908 157.568C183.645 157.656 183.363 157.701 183.078 157.701H182.673C182.099 157.701 181.549 157.516 181.143 157.187C180.737 156.859 180.509 156.413 180.509 155.947V154.867C180.509 154.814 180.522 154.761 180.547 154.712C180.572 154.663 180.609 154.619 180.655 154.581C180.701 154.544 180.756 154.514 180.817 154.494C180.877 154.474 180.942 154.463 181.008 154.463L181.028 154.46Z" fill="#FDA57D"/>
<path opacity="0.1" d="M180.538 155.002C182.058 155.458 183.729 155.458 185.249 155.002V154.532H180.538V155.002Z" fill="black"/>
<path d="M182.904 155.264C186.633 155.264 189.657 152.813 189.657 149.79C189.657 146.767 186.633 144.316 182.904 144.316C179.174 144.316 176.15 146.767 176.15 149.79C176.15 152.813 179.174 155.264 182.904 155.264Z" fill="#FDA57D"/>
<path d="M176.434 147.715H189.308C189.308 147.715 188.211 143.501 183.341 143.774C178.471 144.046 176.434 147.715 176.434 147.715Z" fill="#333333"/>
<path d="M176.292 150.512C176.639 150.512 176.92 150.085 176.92 149.557C176.92 149.029 176.639 148.601 176.292 148.601C175.945 148.601 175.664 149.029 175.664 149.557C175.664 150.085 175.945 150.512 176.292 150.512Z" fill="#FDA57D"/>
<path d="M189.479 150.512C189.825 150.512 190.107 150.085 190.107 149.557C190.107 149.029 189.825 148.601 189.479 148.601C189.132 148.601 188.851 149.029 188.851 149.557C188.851 150.085 189.132 150.512 189.479 150.512Z" fill="#FDA57D"/>
<path opacity="0.1" d="M176.434 147.856H189.308C189.308 147.856 188.211 143.642 183.341 143.915C178.471 144.188 176.434 147.856 176.434 147.856Z" fill="black"/>
<path d="M191.739 211.646C199.244 211.646 205.327 206.692 205.327 200.58C205.327 194.467 199.244 189.513 191.739 189.513C184.235 189.513 178.151 194.467 178.151 200.58C178.151 206.692 184.235 211.646 191.739 211.646Z" fill="#E0E0E0"/>
<path d="M191.739 254.223C199.244 254.223 205.327 249.268 205.327 243.156C205.327 237.044 199.244 232.089 191.739 232.089C184.235 232.089 178.151 237.044 178.151 243.156C178.151 249.268 184.235 254.223 191.739 254.223Z" fill="#E0E0E0"/>
<path d="M290.512 236.309H218.566V240.959H290.512V236.309Z" fill="#E0E0E0"/>
<path d="M290.512 245.609H218.566V250.259H290.512V245.609Z" fill="#EEEEEE"/>
<path d="M290.512 81.0308H218.566V85.6808H290.512V81.0308Z" fill="#E0E0E0"/>
<path d="M290.512 90.3342H218.566V94.9842H290.512V90.3342Z" fill="#E0E0E0"/>
<path d="M251.876 61.8067L219.065 62.2059C218.617 62.2113 218.26 62.5098 218.267 62.8725L218.275 63.3026C218.281 63.6653 218.649 63.9549 219.097 63.9495L251.908 63.5502C252.355 63.5448 252.713 63.2464 252.706 62.8837L252.698 62.4535C252.691 62.0908 252.323 61.8012 251.876 61.8067Z" fill="#DBDBDB"/>
<path d="M260.036 63.4547C260.75 63.4461 261.32 62.97 261.309 62.3916C261.298 61.8131 260.711 61.3511 259.998 61.3598C259.284 61.3685 258.714 61.8445 258.725 62.423C258.736 63.0015 259.323 63.4634 260.036 63.4547Z" fill="#DBDBDB"/>
</g>
<g clip-path="url(#clip1)">
<path d="M424.803 226.299C424.855 226.14 424.898 225.979 424.933 225.817C424.933 225.757 424.933 225.697 424.964 225.641C424.994 225.585 425.003 225.417 425.012 225.305C425.021 225.193 425.012 225.148 425.012 225.069C425.012 224.991 425.012 224.875 425.012 224.778C425.012 224.681 425.012 224.621 425.012 224.546C425.012 224.471 425.012 224.337 424.986 224.232C424.959 224.127 424.964 224.101 424.955 224.038C424.955 223.918 424.912 223.799 424.885 223.664V223.608L415.162 186.038C408.857 186.785 412.21 186.127 408.857 186.785C405.504 187.443 408.857 186.785 402.98 188.422L405.426 197.871L396.671 186.602C396.177 185.952 395.523 185.402 394.754 184.992C393.986 184.582 393.122 184.322 392.223 184.229C390.05 184.03 387.9 183.681 385.792 183.186C384.301 182.816 382.757 182.628 381.205 182.629H366.38C364.827 182.628 363.281 182.815 361.789 183.186C359.681 183.681 357.531 184.03 355.358 184.229C354.459 184.322 353.595 184.582 352.827 184.992C352.058 185.402 351.404 185.952 350.91 186.602L328.425 215.568L306.711 190.975C301.518 193.894 304.23 192.051 301.518 193.894C298.806 195.737 301.518 193.894 296.844 197.665L323.786 228.168C324.304 228.755 324.96 229.243 325.71 229.601C326.461 229.958 327.291 230.178 328.146 230.246H328.294H328.678H329.009H329.214C329.38 230.246 329.55 230.216 329.72 230.194H329.742C330.599 230.078 331.419 229.809 332.147 229.405C332.876 229.001 333.497 228.47 333.971 227.846L349.171 208.785L351.46 240.218C351.46 244.953 356.326 248.814 361.737 248.814H385.853C391.264 248.814 395.694 244.942 395.694 240.218L397.569 208.785L413.619 227.846C413.619 227.869 413.658 227.891 413.675 227.917C413.693 227.944 413.776 228.033 413.828 228.093C413.88 228.153 413.989 228.28 414.081 228.37C414.081 228.392 414.124 228.411 414.142 228.433C414.79 229.071 415.606 229.568 416.523 229.883C416.546 229.889 416.57 229.897 416.592 229.906C416.749 229.954 416.906 230.003 417.068 230.044C417.148 230.065 417.229 230.082 417.312 230.096L417.639 230.164C417.743 230.182 417.852 230.194 417.961 230.209L418.232 230.238H418.541H418.851H419.091C419.226 230.238 419.357 230.238 419.492 230.216L419.64 230.197C419.806 230.197 419.976 230.152 420.141 230.123H420.189C420.378 230.086 420.565 230.039 420.748 229.984H420.769C421.296 229.832 421.796 229.619 422.256 229.353C423.495 228.623 424.39 227.539 424.781 226.295L424.803 226.299Z" fill="url(#paint3_linear)"/>
<path d="M364.75 345.076H352.668V357.982H364.75V345.076Z" fill="url(#paint4_linear)"/>
<path d="M394.752 345.076H382.67V357.982H394.752V345.076Z" fill="url(#paint5_linear)"/>
<path d="M384.074 233.464H364.292C351.578 233.464 347.287 242.288 347.287 252.709L351.124 349.438H368.491V273.393C368.5 272.212 369.015 271.075 369.936 270.198C370.858 269.32 372.123 268.763 373.492 268.631C376.932 268.295 379.884 270.5 379.884 273.266V349.438H397.246L401.768 252.709C401.763 242.288 396.784 233.464 384.074 233.464Z" fill="url(#paint6_linear)"/>
<path d="M364.75 357.986V371.004H347.575C347.208 371.018 346.844 370.936 346.533 370.768C346.222 370.599 345.978 370.353 345.836 370.063C345.693 369.772 345.658 369.451 345.735 369.143C345.812 368.834 345.998 368.554 346.267 368.339C349.716 365.618 354.115 361.331 352.668 357.986" fill="url(#paint7_linear)"/>
<path d="M382.862 357.986V371.004H400.041C400.409 371.018 400.772 370.936 401.083 370.768C401.394 370.599 401.638 370.353 401.78 370.063C401.923 369.772 401.958 369.451 401.881 369.143C401.804 368.834 401.618 368.554 401.349 368.339C397.905 365.618 393.501 361.331 394.948 357.986" fill="url(#paint8_linear)"/>
<path d="M364.946 343.906H353.514V356.678H364.946V343.906Z" fill="#FFD9CB"/>
<path d="M393.335 343.906H381.903V356.678H393.335V343.906Z" fill="#FFD9CB"/>
<path d="M383.228 233.464H364.51C352.48 233.464 348.416 242.195 348.416 252.507L352.048 348.223H368.482V272.985C368.468 271.842 368.941 270.734 369.812 269.867C370.683 269.001 371.892 268.437 373.213 268.28C373.97 268.202 374.738 268.262 375.466 268.456C376.194 268.651 376.866 268.976 377.438 269.409C378.009 269.842 378.467 270.374 378.781 270.97C379.095 271.566 379.258 272.212 379.26 272.866V348.223H395.694L399.967 252.507C399.967 242.195 395.258 233.464 383.228 233.464Z" fill="#212121"/>
<path d="M364.946 356.678V369.561H348.709C348.352 369.56 348.004 369.469 347.709 369.297C347.414 369.126 347.185 368.882 347.052 368.599C346.92 368.315 346.889 368.004 346.964 367.705C347.039 367.406 347.217 367.134 347.475 366.922C350.736 364.231 354.887 359.989 353.531 356.678" fill="#212121"/>
<path d="M382.086 356.678V369.561H398.341C398.697 369.56 399.045 369.469 399.34 369.297C399.636 369.126 399.864 368.882 399.997 368.599C400.13 368.315 400.16 368.004 400.085 367.705C400.01 367.406 399.832 367.134 399.575 366.922C396.313 364.231 392.162 359.989 393.518 356.678" fill="#212121"/>
<path d="M373.998 187.234C397.611 187.234 416.754 169.944 416.754 148.617C416.754 127.289 397.611 110 373.998 110C350.384 110 331.242 127.289 331.242 148.617C331.242 169.944 350.384 187.234 373.998 187.234Z" fill="url(#paint9_linear)"/>
<path d="M373.998 185.309C396.434 185.309 414.622 168.881 414.622 148.617C414.622 128.352 396.434 111.925 373.998 111.925C351.562 111.925 333.374 128.352 333.374 148.617C333.374 168.881 351.562 185.309 373.998 185.309Z" fill="#62C962"/>
<path d="M373.4 180.708C391.906 180.708 406.908 167.548 406.908 151.315C406.908 135.082 391.906 121.923 373.4 121.923C354.894 121.923 339.892 135.082 339.892 151.315C339.892 167.548 354.894 180.708 373.4 180.708Z" fill="#62C962"/>
<path opacity="0.3" d="M373.836 179.587C392.342 179.587 407.344 166.427 407.344 150.194C407.344 133.961 392.342 120.802 373.836 120.802C355.33 120.802 340.328 133.961 340.328 150.194C340.328 166.427 355.33 179.587 373.836 179.587Z" fill="black"/>
<path d="M403.756 167.078L398.226 183.706C397.931 184.594 398.531 185.518 399.566 185.771L407.269 187.653C408.304 187.906 409.383 187.392 409.678 186.504L415.207 169.877C415.502 168.989 414.902 168.065 413.867 167.812L406.164 165.93C405.129 165.677 404.051 166.191 403.756 167.078Z" fill="#BDBDBD"/>
<path d="M299.101 180.369L298.437 180.659C298.01 180.845 297.84 181.293 298.057 181.659L302.107 188.481C302.324 188.847 302.847 188.993 303.274 188.807L303.938 188.517C304.365 188.33 304.535 187.883 304.318 187.517L300.268 180.694C300.051 180.328 299.528 180.183 299.101 180.369Z" fill="#FFCFBE"/>
<path d="M292.487 183.723L292.114 184.276C291.875 184.632 292.017 185.087 292.432 185.292L300.022 189.049C300.437 189.254 300.967 189.132 301.207 188.776L301.58 188.223C301.819 187.867 301.677 187.412 301.262 187.207L293.672 183.45C293.257 183.245 292.727 183.367 292.487 183.723Z" fill="#FFCFBE"/>
<path d="M297.577 188.482C296.6 188.957 291.503 191.808 298.056 197.026C298.458 197.344 298.977 197.531 299.523 197.557C300.069 197.582 300.608 197.443 301.047 197.164L305.669 194.23C306.07 193.976 306.366 193.618 306.514 193.21C306.663 192.801 306.655 192.363 306.493 191.958L305.185 188.654C304.992 188.171 304.666 187.736 304.233 187.385C303.8 187.035 303.275 186.78 302.701 186.642C302.128 186.505 301.524 186.489 300.942 186.596C300.36 186.703 299.817 186.929 299.36 187.256L297.925 188.284C297.818 188.36 297.701 188.427 297.577 188.482Z" fill="#FFCFBE"/>
<path d="M413.261 175.804H412.516C412.036 175.804 411.648 176.137 411.648 176.548V180.94C411.648 181.35 412.036 181.683 412.516 181.683H413.261C413.74 181.683 414.129 181.35 414.129 180.94V176.548C414.129 176.137 413.74 175.804 413.261 175.804Z" fill="#FFCFBE"/>
<path d="M407.331 180.383C407.331 180.383 398.707 180.51 404.196 189.835L413.353 188.235L414.325 180.386C414.352 180.202 414.326 180.016 414.248 179.843C414.17 179.67 414.043 179.516 413.879 179.395C413.715 179.274 413.518 179.19 413.307 179.151C413.096 179.111 412.876 179.117 412.668 179.168L407.331 180.383Z" fill="#FFCFBE"/>
<path d="M406.662 172.549L405.987 172.821C405.553 172.996 405.367 173.439 405.571 173.81L409.513 180.994C409.717 181.366 410.234 181.525 410.667 181.351L411.342 181.079C411.776 180.904 411.962 180.461 411.758 180.089L407.816 172.905C407.612 172.534 407.095 172.374 406.662 172.549Z" fill="#FFCFBE"/>
<path d="M405.052 173.704L404.377 173.976C403.944 174.151 403.757 174.594 403.961 174.966L407.27 180.996C407.474 181.368 407.991 181.528 408.425 181.353L409.099 181.081C409.533 180.906 409.719 180.463 409.515 180.091L406.206 174.061C406.002 173.689 405.486 173.529 405.052 173.704Z" fill="#FFCFBE"/>
<path d="M403.363 175.614L402.689 175.886C402.255 176.06 402.069 176.503 402.273 176.875L405.372 182.523C405.576 182.895 406.093 183.055 406.526 182.88L407.201 182.608C407.635 182.433 407.821 181.99 407.617 181.618L404.518 175.97C404.314 175.598 403.797 175.439 403.363 175.614Z" fill="#FFCFBE"/>
<path d="M401.982 178.055L401.307 178.327C400.874 178.502 400.688 178.945 400.892 179.317L403.527 184.119C403.731 184.491 404.248 184.651 404.681 184.476L405.356 184.204C405.79 184.029 405.976 183.586 405.772 183.214L403.137 178.412C402.933 178.04 402.416 177.88 401.982 178.055Z" fill="#FFCFBE"/>
<path d="M423.957 225.458C424.005 225.305 424.048 225.148 424.083 224.991C424.083 224.935 424.083 224.879 424.114 224.823C424.144 224.767 424.153 224.606 424.162 224.497C424.17 224.389 424.162 224.344 424.162 224.266C424.162 224.187 424.162 224.079 424.162 223.985C424.162 223.892 424.162 223.836 424.162 223.761C424.162 223.686 424.162 223.556 424.14 223.455C424.118 223.354 424.14 223.331 424.109 223.268C424.079 223.204 424.066 223.036 424.04 222.92C424.04 222.92 424.04 222.883 424.04 222.868L414.421 186.419C408.186 187.144 411.5 186.509 408.186 187.144C404.872 187.779 408.186 187.144 402.369 188.732L404.789 197.893L396.134 186.968C395.639 186.334 394.99 185.8 394.23 185.402C393.47 185.005 392.619 184.754 391.735 184.666C389.587 184.474 387.459 184.137 385.373 183.657C383.898 183.297 382.372 183.114 380.839 183.115H366.171C364.638 183.115 363.111 183.297 361.637 183.657C359.55 184.137 357.423 184.474 355.275 184.666C354.393 184.755 353.544 185.007 352.787 185.405C352.03 185.802 351.382 186.336 350.889 186.968L328.652 215.049L307.178 191.207C302.041 194.036 304.723 192.253 302.041 194.036C299.36 195.819 302.041 194.036 297.42 197.695L324.06 227.271C324.577 227.844 325.227 228.319 325.97 228.666C326.712 229.013 327.53 229.224 328.373 229.285C328.421 229.285 328.473 229.285 328.521 229.285H328.9H329.223H329.428C329.593 229.285 329.759 229.259 329.929 229.237H329.96C330.803 229.127 331.61 228.868 332.331 228.477C333.051 228.086 333.669 227.571 334.146 226.964L350.017 206.882L351.835 238.954C351.843 241.166 352.871 243.284 354.696 244.847C356.52 246.41 358.992 247.291 361.571 247.297H385.417C387.996 247.291 390.468 246.41 392.292 244.847C394.117 243.284 395.145 241.166 395.153 238.954L396.967 206.882L412.891 226.972L412.952 227.039L413.1 227.207C413.178 227.301 413.261 227.394 413.348 227.48L413.414 227.54C414.058 228.159 414.863 228.641 415.764 228.945C415.788 228.951 415.811 228.958 415.834 228.968C415.991 229.016 416.148 229.065 416.305 229.102L416.544 229.155L416.867 229.218C416.972 229.237 417.081 229.248 417.185 229.259L417.456 229.289H417.765H418.066H418.306C418.437 229.289 418.572 229.289 418.703 229.267L418.847 229.248C419.012 229.229 419.178 229.207 419.344 229.177H419.392C419.575 229.14 419.762 229.095 419.945 229.046C420.465 228.9 420.96 228.694 421.415 228.433C422.635 227.736 423.522 226.685 423.913 225.473L423.957 225.458Z" fill="#62C962"/>
<path d="M373.509 176.223C389.747 176.223 402.91 164.939 402.91 151.02C402.91 137.101 389.747 125.818 373.509 125.818C357.272 125.818 344.109 137.101 344.109 151.02C344.109 164.939 357.272 176.223 373.509 176.223Z" fill="#E53935"/>
<path d="M379.993 175.247C379.993 172.407 377.308 170.104 373.995 170.104C370.683 170.104 367.998 172.407 367.998 175.247V184.019C367.998 186.86 370.683 189.162 373.995 189.162C377.308 189.162 379.993 186.86 379.993 184.019V175.247Z" fill="#FFE0B2"/>
<path d="M373.509 174.881C386.067 174.881 396.248 166.154 396.248 155.389C396.248 144.624 386.067 135.898 373.509 135.898C360.951 135.898 350.771 144.624 350.771 155.389C350.771 166.154 360.951 174.881 373.509 174.881Z" fill="#FFE0B2"/>
<path d="M365.927 151.188C366.685 151.188 367.3 150.661 367.3 150.011C367.3 149.361 366.685 148.834 365.927 148.834C365.168 148.834 364.553 149.361 364.553 150.011C364.553 150.661 365.168 151.188 365.927 151.188Z" fill="#DB7657"/>
<path d="M381.087 151.188C381.846 151.188 382.461 150.661 382.461 150.011C382.461 149.361 381.846 148.834 381.087 148.834C380.329 148.834 379.714 149.361 379.714 150.011C379.714 150.661 380.329 151.188 381.087 151.188Z" fill="#DB7657"/>
<path d="M379.125 161.949C379.125 163.522 376.609 164.801 373.505 164.801C370.401 164.801 367.893 163.507 367.893 161.949C367.893 160.39 379.125 160.375 379.125 161.949Z" fill="white"/>
<path d="M362.269 134.22C362.269 134.22 358.611 149.918 397.813 146.767L388.142 133.102L362.269 134.22Z" fill="#E53935"/>
<path d="M352.13 157.489C353.353 157.116 353.735 155.349 352.984 153.542C352.232 151.736 350.632 150.575 349.41 150.948C348.187 151.322 347.805 153.089 348.556 154.895C349.307 156.702 350.907 157.863 352.13 157.489Z" fill="#FFCFBE"/>
<path d="M376.84 148.837H371.155V151.188H376.84V148.837Z" fill="#62C962"/>
<path d="M408.543 172.067C409.22 172.067 409.769 171.596 409.769 171.016C409.769 170.436 409.22 169.966 408.543 169.966C407.867 169.966 407.318 170.436 407.318 171.016C407.318 171.596 407.867 172.067 408.543 172.067Z" fill="white"/>
<path d="M372.55 209.36C370.892 207.946 368.646 207.154 366.307 207.159C363.967 207.164 361.726 207.965 360.076 209.386C358.425 210.808 357.502 212.733 357.507 214.738C357.513 216.744 358.448 218.665 360.106 220.08L372.611 230.743L385.051 220.027C385.892 219.328 386.562 218.493 387.022 217.569C387.482 216.646 387.723 215.653 387.731 214.649C387.739 213.645 387.513 212.649 387.067 211.721C386.621 210.792 385.964 209.949 385.133 209.24C384.303 208.532 383.317 207.972 382.231 207.594C381.146 207.216 379.984 207.027 378.812 207.038C377.641 207.05 376.484 207.261 375.409 207.659C374.334 208.058 373.362 208.636 372.55 209.36Z" fill="white"/>
<path d="M399.228 155.622C399.988 153.819 399.616 152.051 398.396 151.673C397.176 151.294 395.57 152.449 394.81 154.252C394.049 156.054 394.421 157.822 395.642 158.201C396.862 158.579 398.467 157.424 399.228 155.622Z" fill="#FFCFBE"/>
<path d="M365.016 183.111C365.936 183.111 366.681 182.472 366.681 181.683C366.681 180.895 365.936 180.256 365.016 180.256C364.096 180.256 363.35 180.895 363.35 181.683C363.35 182.472 364.096 183.111 365.016 183.111Z" fill="white"/>
<path d="M365.168 181.683H364.732C364.455 181.683 364.231 181.876 364.231 182.113V195.871C364.231 196.109 364.455 196.301 364.732 196.301H365.168C365.445 196.301 365.67 196.109 365.67 195.871V182.113C365.67 181.876 365.445 181.683 365.168 181.683Z" fill="white"/>
<path d="M383.808 183.111C384.728 183.111 385.474 182.472 385.474 181.683C385.474 180.895 384.728 180.256 383.808 180.256C382.888 180.256 382.142 180.895 382.142 181.683C382.142 182.472 382.888 183.111 383.808 183.111Z" fill="white"/>
<path d="M384.026 181.683H383.59C383.313 181.683 383.089 181.876 383.089 182.113V193.434C383.089 193.672 383.313 193.864 383.59 193.864H384.026C384.303 193.864 384.527 193.672 384.527 193.434V182.113C384.527 181.876 384.303 181.683 384.026 181.683Z" fill="white"/>
<path d="M361.122 159.501C367.236 159.501 372.193 155.252 372.193 150.011C372.193 144.77 367.236 140.521 361.122 140.521C355.008 140.521 350.052 144.77 350.052 150.011C350.052 155.252 355.008 159.501 361.122 159.501Z" fill="#62C962"/>
<path opacity="0.3" d="M361.122 156.66C365.406 156.66 368.879 153.683 368.879 150.011C368.879 146.339 365.406 143.362 361.122 143.362C356.838 143.362 353.365 146.339 353.365 150.011C353.365 153.683 356.838 156.66 361.122 156.66Z" fill="black"/>
<path d="M386.743 159.501C392.857 159.501 397.813 155.252 397.813 150.011C397.813 144.77 392.857 140.521 386.743 140.521C380.628 140.521 375.672 144.77 375.672 150.011C375.672 155.252 380.628 159.501 386.743 159.501Z" fill="#62C962"/>
<path opacity="0.3" d="M386.742 156.66C391.026 156.66 394.499 153.683 394.499 150.011C394.499 146.339 391.026 143.362 386.742 143.362C382.459 143.362 378.986 146.339 378.986 150.011C378.986 153.683 382.459 156.66 386.742 156.66Z" fill="black"/>
<path d="M563.417 299.847C563.273 308.612 554.645 315.545 544.416 315.545H542.994C541.736 315.54 540.525 315.959 539.624 316.711C538.939 317.262 538.462 317.975 538.255 318.76C538.158 319.076 538.11 319.401 538.111 319.728V335.205C538.116 338.18 537.123 341.094 535.251 343.6C532.527 347.149 531.05 351.294 530.995 355.541C530.995 356.533 530.765 357.516 530.318 358.431C529.87 359.346 529.215 360.175 528.39 360.871C527.565 361.567 526.587 362.115 525.512 362.483C524.437 362.852 523.288 363.033 522.131 363.016C517.335 362.942 513.598 359.417 513.598 355.317V351.426L511.226 351.665V355.541C511.226 356.534 510.996 357.516 510.548 358.432C510.101 359.347 509.445 360.177 508.62 360.873C507.794 361.568 506.815 362.116 505.74 362.484C504.665 362.852 503.515 363.033 502.357 363.016C497.561 362.942 493.824 359.417 493.824 355.317V353.34C491.452 354.185 478.01 354.185 474.278 353.366L473.266 353.299V355.541C473.266 356.534 473.036 357.516 472.588 358.432C472.141 359.347 471.485 360.177 470.66 360.873C469.834 361.568 468.855 362.116 467.78 362.484C466.705 362.852 465.555 363.033 464.397 363.016C459.601 362.942 455.865 359.417 455.865 355.317V352.095L455.075 352.035V355.56C455.079 356.553 454.851 357.537 454.405 358.453C453.959 359.369 453.304 360.2 452.478 360.897C451.653 361.593 450.673 362.141 449.597 362.508C448.52 362.875 447.369 363.055 446.211 363.035C441.851 362.968 438.332 360.019 437.757 356.379C437.706 356.033 437.68 355.684 437.678 355.336V339.103C437.674 333.547 439.847 328.151 443.848 323.779C444.542 323.005 444.931 322.061 444.958 321.085C444.985 320.108 444.648 319.15 443.996 318.349C439.566 312.791 433.022 303.398 433.231 296.76C433.288 294.835 433.907 293.146 435.306 291.838C435.394 291.756 435.481 291.673 435.568 291.599C441.938 285.88 453.161 290.38 452.189 298.244C451.862 300.874 452.089 303.532 452.86 306.093C453.307 307.542 453.91 308.952 454.661 310.305C455.404 311.666 456.628 312.792 458.16 313.522C459.692 314.252 461.454 314.549 463.194 314.372C464.378 314.25 465.569 314.189 466.761 314.189H503.338C505.485 314.188 507.578 313.611 509.323 312.539C511.068 311.466 512.377 309.952 513.066 308.208C513.436 307.295 513.623 306.335 513.62 305.368V280.973C513.619 280.337 513.768 279.707 514.057 279.122C514.346 278.536 514.769 278.006 515.301 277.563C515.833 277.121 516.464 276.774 517.156 276.544C517.847 276.315 518.586 276.206 519.327 276.226C520.051 276.247 520.762 276.393 521.418 276.655C522.074 276.917 522.662 277.29 523.147 277.751C524.138 278.687 524.688 279.906 524.69 281.171C524.69 281.501 524.766 281.828 524.914 282.133C525.061 282.438 525.277 282.715 525.55 282.948C525.822 283.181 526.146 283.366 526.502 283.492C526.858 283.618 527.239 283.683 527.625 283.682H544.856C547.32 283.681 549.76 284.1 552.033 284.915C554.306 285.73 556.368 286.924 558.097 288.429C559.826 289.933 561.189 291.718 562.107 293.678C563.024 295.638 563.477 297.736 563.439 299.847H563.417Z" fill="#F3AD55"/>
<path d="M454.805 357.391C454.315 359.018 453.201 360.455 451.642 361.472C450.083 362.489 448.17 363.027 446.211 362.998C441.851 362.931 438.332 359.982 437.757 356.341C443.024 355.123 450.323 354.282 454.805 357.391Z" fill="#FBDCA3"/>
<path d="M472.996 357.391C472.506 359.018 471.391 360.456 469.831 361.473C468.271 362.491 466.357 363.028 464.397 362.998C460.037 362.931 456.523 359.982 455.947 356.341C461.201 355.123 468.513 354.282 472.996 357.391Z" fill="#FBDCA3"/>
<path d="M510.956 357.391C510.466 359.018 509.351 360.456 507.791 361.473C506.231 362.491 504.317 363.028 502.357 362.998C497.997 362.931 494.483 359.982 493.907 356.341C499.174 355.123 506.473 354.282 510.956 357.391Z" fill="#FBDCA3"/>
<path d="M530.725 357.391C530.235 359.018 529.121 360.455 527.562 361.472C526.003 362.489 524.09 363.027 522.131 362.998C517.77 362.931 514.252 359.982 513.676 356.341C518.943 355.123 526.242 354.282 530.725 357.391Z" fill="#FBDCA3"/>
<path d="M452.86 306.089C446.717 303.974 439.217 300.109 433.24 296.745C433.296 294.82 433.915 293.131 435.315 291.823C435.402 291.741 435.489 291.658 435.577 291.584C441.947 285.865 453.17 290.365 452.198 298.229C451.866 300.862 452.091 303.524 452.86 306.089Z" fill="#FBDCA3"/>
<path d="M460.299 314.233C460.299 314.233 477.221 332.492 504.899 314.189L460.299 314.233Z" fill="#FBDCA3"/>
<path d="M513.598 280.296C513.598 280.296 523.879 291.819 513.598 306.056V280.296Z" fill="#FBDCA3"/>
<path d="M538.111 319.612C538.111 319.612 529.059 329.259 537.997 336.921L538.111 319.612Z" fill="#FBDCA3"/>
<path opacity="0.1" d="M538.904 317.579C538.233 318.121 538.468 318.644 538.255 319.447L508.854 312.847C510.432 311.8 512.394 310.559 513.044 308.907C516.576 311.24 523.552 315.172 538.904 317.579Z" fill="black"/>
<path d="M539.624 316.711C538.939 317.262 538.462 317.975 538.255 318.76L509.599 312.353C511.201 311.297 512.401 309.857 513.048 308.216C516.576 310.563 524.258 314.304 539.624 316.711Z" fill="#383F4D"/>
<path opacity="0.1" d="M514.121 309.573C514.121 309.573 523.086 315.355 538.102 317.145L514.121 309.573Z" fill="black"/>
<path d="M514.121 308.9C514.121 308.9 523.086 314.678 538.102 316.468L514.121 308.9Z" fill="#F3AD55"/>
<path opacity="0.1" d="M536.532 309.446C536.532 309.446 551.558 313.512 555.512 300.632L536.532 309.446Z" fill="black"/>
<path d="M536.532 308.765C536.532 308.765 551.558 312.836 555.512 299.952L536.532 308.765Z" fill="#FBDCA3"/>
<path d="M563.422 300.632C564.296 300.632 565.004 299.57 565.004 298.259C565.004 296.948 564.296 295.886 563.422 295.886C562.547 295.886 561.839 296.948 561.839 298.259C561.839 299.57 562.547 300.632 563.422 300.632Z" fill="#383F4D"/>
<path opacity="0.1" d="M443.608 347.068L446.774 325.39C446.774 325.39 437.281 338.27 443.608 347.068Z" fill="black"/>
<path d="M447.563 325.375C447.563 325.375 438.075 338.255 444.402 347.053L447.563 325.375Z" fill="#FBDCA3"/>
</g>
<defs>
<linearGradient id="paint0_linear" x1="81.0249" y1="260.802" x2="166.544" y2="9.97462" gradientUnits="userSpaceOnUse">
<stop stop-color="#808080" stop-opacity="0.25"/>
<stop offset="0.54" stop-color="#808080" stop-opacity="0.12"/>
<stop offset="1" stop-color="#808080" stop-opacity="0.1"/>
</linearGradient>
<linearGradient id="paint1_linear" x1="89115" y1="195557" x2="175142" y2="53624.8" gradientUnits="userSpaceOnUse">
<stop stop-color="#808080" stop-opacity="0.25"/>
<stop offset="0.54" stop-color="#808080" stop-opacity="0.12"/>
<stop offset="1" stop-color="#808080" stop-opacity="0.1"/>
</linearGradient>
<linearGradient id="paint2_linear" x1="81638.6" y1="23799.8" x2="81638.6" y2="15490.9" gradientUnits="userSpaceOnUse">
<stop stop-color="#808080" stop-opacity="0.25"/>
<stop offset="0.54" stop-color="#808080" stop-opacity="0.12"/>
<stop offset="1" stop-color="#808080" stop-opacity="0.1"/>
</linearGradient>
<linearGradient id="paint3_linear" x1="360.943" y1="248.833" x2="360.943" y2="182.629" gradientUnits="userSpaceOnUse">
<stop stop-color="#808080" stop-opacity="0.25"/>
<stop offset="0.54" stop-color="#808080" stop-opacity="0.12"/>
<stop offset="1" stop-color="#808080" stop-opacity="0.1"/>
</linearGradient>
<linearGradient id="paint4_linear" x1="2033.77" y1="8685.11" x2="2368.68" y2="8685.11" gradientUnits="userSpaceOnUse">
<stop stop-color="#808080" stop-opacity="0.25"/>
<stop offset="0.54" stop-color="#808080" stop-opacity="0.12"/>
<stop offset="1" stop-color="#808080" stop-opacity="0.1"/>
</linearGradient>
<linearGradient id="paint5_linear" x1="2895.14" y1="8685.11" x2="3229.93" y2="8685.11" gradientUnits="userSpaceOnUse">
<stop stop-color="#808080" stop-opacity="0.25"/>
<stop offset="0.54" stop-color="#808080" stop-opacity="0.12"/>
<stop offset="1" stop-color="#808080" stop-opacity="0.1"/>
</linearGradient>
<linearGradient id="paint6_linear" x1="22887.5" y1="68231.3" x2="29694.9" y2="68231.3" gradientUnits="userSpaceOnUse">
<stop stop-color="#808080" stop-opacity="0.25"/>
<stop offset="0.54" stop-color="#808080" stop-opacity="0.12"/>
<stop offset="1" stop-color="#808080" stop-opacity="0.1"/>
</linearGradient>
<linearGradient id="paint7_linear" x1="8159.27" y1="10536" x2="8992.53" y2="10536" gradientUnits="userSpaceOnUse">
<stop stop-color="#808080" stop-opacity="0.25"/>
<stop offset="0.54" stop-color="#808080" stop-opacity="0.12"/>
<stop offset="1" stop-color="#808080" stop-opacity="0.1"/>
</linearGradient>
<linearGradient id="paint8_linear" x1="9823.38" y1="10536" x2="10656.8" y2="10536" gradientUnits="userSpaceOnUse">
<stop stop-color="#808080" stop-opacity="0.25"/>
<stop offset="0.54" stop-color="#808080" stop-opacity="0.12"/>
<stop offset="1" stop-color="#808080" stop-opacity="0.1"/>
</linearGradient>
<linearGradient id="paint9_linear" x1="16412.6" y1="16070.3" x2="16412.6" y2="110" gradientUnits="userSpaceOnUse">
<stop stop-color="#808080" stop-opacity="0.25"/>
<stop offset="0.54" stop-color="#808080" stop-opacity="0.12"/>
<stop offset="1" stop-color="#808080" stop-opacity="0.1"/>
</linearGradient>
<clipPath id="clip0">
<rect width="269" height="256" fill="white" transform="translate(63 27)"/>
</clipPath>
<clipPath id="clip1">
<rect width="273" height="261" fill="white" transform="translate(292 110)"/>
</clipPath>
</defs>
</svg>
