<svg width="269" height="256" viewBox="0 0 269 256" fill="none" xmlns="http://www.w3.org/2000/svg">
<g clip-path="url(#clip0)">
<g opacity="0.5">
<path opacity="0.5" d="M152.775 0.183197L6.02009 0.472185C4.42094 0.474795 2.88852 0.992023 1.75965 1.91017C0.630778 2.82833 -0.00214573 4.07226 5.46575e-06 5.36855L0.668452 224.647C0.670577 225.29 0.828717 225.925 1.13383 226.518C1.43894 227.11 1.88506 227.648 2.44671 228.101C3.00837 228.554 3.67454 228.913 4.40722 229.157C5.13991 229.401 5.92473 229.526 6.7169 229.524L153.472 229.235C155.071 229.232 156.603 228.714 157.731 227.795C158.859 226.876 159.491 225.632 159.488 224.335L158.807 5.05657C158.802 3.76257 158.164 2.52304 157.033 1.60958C155.903 0.69611 154.371 0.18319 152.775 0.183197Z" fill="url(#paint0_linear)"/>
<path opacity="0.5" d="M151.145 -0.00284739L7.66792 0.281337C4.61609 0.287382 2.14813 2.29773 2.15559 4.77157L2.81013 221.912C2.81759 224.386 5.29764 226.386 8.34946 226.38L151.826 226.096C154.878 226.09 157.346 224.08 157.339 221.606L156.684 4.4655C156.677 1.99165 154.197 -0.00889214 151.145 -0.00284739Z" fill="white"/>
<path opacity="0.5" d="M152.981 62.6511L152.828 10.4364C152.823 9.17495 152.201 7.9665 151.098 7.07668C149.995 6.18686 148.501 5.68848 146.945 5.6911L118.242 5.74692C117.803 8.14545 116.32 10.3374 114.06 11.9263C111.8 13.5153 108.914 14.3963 105.923 14.41L52.5481 14.5151C49.5567 14.5133 46.6649 13.6439 44.3956 12.064C42.1263 10.4841 40.6294 8.29805 40.1757 5.90127L11.9023 5.95709C10.3462 5.96057 8.85539 6.4648 7.75766 7.35893C6.65994 8.25306 6.04512 9.46393 6.04835 10.7254L6.20636 63.3802L6.66414 215.972C6.67165 217.233 7.29676 218.441 8.40208 219.329C9.5074 220.217 11.0025 220.713 12.5586 220.707L147.602 220.441C149.153 220.435 150.638 219.93 151.731 219.038C152.825 218.147 153.439 216.941 153.439 215.683L152.981 62.6511Z" fill="#BBBBBB"/>
<path opacity="0.5" d="M94.4243 8.32771L61.6133 8.72696C61.1658 8.7324 60.8085 9.03084 60.8153 9.39353L60.8232 9.82368C60.8299 10.1864 61.1981 10.476 61.6455 10.4705L94.4566 10.0713C94.904 10.0658 95.2613 9.76741 95.2546 9.40472L95.2466 8.97457C95.2399 8.61188 94.8717 8.32227 94.4243 8.32771Z" fill="#DBDBDB"/>
<path opacity="0.5" d="M102.585 9.97251C103.299 9.96382 103.868 9.48782 103.858 8.90932C103.847 8.33083 103.26 7.8689 102.546 7.87759C101.832 7.88627 101.263 8.36227 101.273 8.94077C101.284 9.51927 101.871 9.98119 102.585 9.97251Z" fill="#DBDBDB"/>
<path opacity="0.5" d="M139.236 33.9954H67.2905V38.6455H139.236V33.9954Z" fill="#E0E0E0"/>
<path opacity="0.5" d="M139.236 43.2955H67.2905V47.9456H139.236V43.2955Z" fill="#E0E0E0"/>
<path opacity="0.5" d="M31.6358 50.1196C39.1401 50.1196 45.2236 45.1648 45.2236 39.0527C45.2236 32.9406 39.1401 27.9858 31.6358 27.9858C24.1315 27.9858 18.0481 32.9406 18.0481 39.0527C18.0481 45.1648 24.1315 50.1196 31.6358 50.1196Z" fill="#F5F5F5"/>
<path opacity="0.5" d="M37.4899 46.7995H25.7049C25.1395 46.803 24.5835 46.9171 24.0842 47.1321C23.5848 47.347 23.1569 47.6565 22.8367 48.0343C25.4847 49.2658 28.4811 49.9203 31.5339 49.9341C34.5868 49.948 37.592 49.3206 40.2568 48.1131C39.9576 47.7317 39.5505 47.4135 39.0693 47.1851C38.5881 46.9566 38.0467 46.8245 37.4899 46.7995Z" fill="#70FF63"/>
<path opacity="0.5" d="M25.8021 39.3351C25.8021 39.3351 24.0763 43.4072 23.1323 43.0263C23.1323 43.0263 32.2232 49.3906 40.2487 43.0263C39.2829 41.6884 38.1227 40.4492 36.793 39.3351H25.8021Z" fill="#333333"/>
<path opacity="0.5" d="M31.6279 44.4285C35.3576 44.4285 38.3812 41.9776 38.3812 38.9542C38.3812 35.9308 35.3576 33.4798 31.6279 33.4798C27.8981 33.4798 24.8745 35.9308 24.8745 38.9542C24.8745 41.9776 27.8981 44.4285 31.6279 44.4285Z" fill="#333333"/>
<path opacity="0.1" d="M29.2537 44.9014H33.9652V46.3857C33.9652 46.8508 33.7373 47.2969 33.3316 47.6257C32.9259 47.9546 32.3756 48.1394 31.8019 48.1394H31.3967C30.823 48.1394 30.2727 47.9546 29.867 47.6257C29.4613 47.2969 29.2334 46.8508 29.2334 46.3857V44.9014H29.2537Z" fill="black"/>
<path opacity="0.5" d="M29.7521 44.8094H33.4711C33.6033 44.8094 33.73 44.852 33.8235 44.9278C33.9169 45.0035 33.9694 45.1062 33.9694 45.2134V46.3036C33.9694 46.7687 33.7415 47.2148 33.3358 47.5436C32.9301 47.8725 32.3798 48.0573 31.8061 48.0573H31.4009C30.83 48.0538 30.2839 47.8675 29.8817 47.539C29.4795 47.2105 29.2538 46.7665 29.2538 46.3036V45.2232C29.2522 45.1694 29.2639 45.1158 29.2882 45.0656C29.3125 45.0155 29.349 44.9698 29.3954 44.9312C29.4418 44.8927 29.4973 44.862 29.5586 44.8411C29.6198 44.8202 29.6856 44.8094 29.7521 44.8094Z" fill="#FDA57D"/>
<path opacity="0.1" d="M29.2659 45.3612C30.7858 45.8179 32.4574 45.8179 33.9774 45.3612V44.9178H29.2659V45.3612Z" fill="black"/>
<path opacity="0.5" d="M31.6279 45.6173C35.3576 45.6173 38.3812 43.1664 38.3812 40.143C38.3812 37.1196 35.3576 34.6686 31.6279 34.6686C27.8981 34.6686 24.8745 37.1196 24.8745 40.143C24.8745 43.1664 27.8981 45.6173 31.6279 45.6173Z" fill="#FDA57D"/>
<path opacity="0.5" d="M25.1743 38.0642H38.049C38.049 38.0642 36.9512 33.8509 32.0816 34.1235C27.2121 34.3961 25.1743 38.0642 25.1743 38.0642Z" fill="#333333"/>
<path opacity="0.5" d="M25.0161 40.8654C25.3629 40.8654 25.6441 40.4376 25.6441 39.9098C25.6441 39.382 25.3629 38.9542 25.0161 38.9542C24.6693 38.9542 24.3882 39.382 24.3882 39.9098C24.3882 40.4376 24.6693 40.8654 25.0161 40.8654Z" fill="#FDA57D"/>
<path opacity="0.5" d="M38.207 40.8654C38.5538 40.8654 38.835 40.4376 38.835 39.9098C38.835 39.382 38.5538 38.9542 38.207 38.9542C37.8602 38.9542 37.5791 39.382 37.5791 39.9098C37.5791 40.4376 37.8602 40.8654 38.207 40.8654Z" fill="#FDA57D"/>
<path opacity="0.1" d="M25.1743 38.2087H38.049C38.049 38.2087 36.9512 33.9954 32.0816 34.268C27.2121 34.5406 25.1743 38.2087 25.1743 38.2087Z" fill="black"/>
<path opacity="0.5" d="M139.236 69.416H67.2905V74.0661H139.236V69.416Z" fill="#E0E0E0"/>
<path opacity="0.5" d="M139.236 78.7162H67.2905V83.3662H139.236V78.7162Z" fill="#E0E0E0"/>
<path opacity="0.5" d="M31.6358 85.5402C39.1401 85.5402 45.2236 80.5854 45.2236 74.4733C45.2236 68.3612 39.1401 63.4064 31.6358 63.4064C24.1315 63.4064 18.0481 68.3612 18.0481 74.4733C18.0481 80.5854 24.1315 85.5402 31.6358 85.5402Z" fill="#E0E0E0"/>
<path opacity="0.5" d="M139.236 104.837H67.2905V109.487H139.236V104.837Z" fill="#E0E0E0"/>
<path opacity="0.5" d="M139.236 114.137H67.2905V118.787H139.236V114.137Z" fill="#E0E0E0"/>
<path opacity="0.5" d="M31.6358 120.961C39.1401 120.961 45.2236 116.006 45.2236 109.894C45.2236 103.782 39.1401 98.8271 31.6358 98.8271C24.1315 98.8271 18.0481 103.782 18.0481 109.894C18.0481 116.006 24.1315 120.961 31.6358 120.961Z" fill="#E0E0E0"/>
<path opacity="0.5" d="M139.236 140.257H67.2905V144.907H139.236V140.257Z" fill="#E0E0E0"/>
<path opacity="0.5" d="M139.236 149.557H67.2905V154.208H139.236V149.557Z" fill="#E0E0E0"/>
<path opacity="0.5" d="M31.6358 156.382C39.1401 156.382 45.2236 151.427 45.2236 145.315C45.2236 139.203 39.1401 134.248 31.6358 134.248C24.1315 134.248 18.0481 139.203 18.0481 145.315C18.0481 151.427 24.1315 156.382 31.6358 156.382Z" fill="#E0E0E0"/>
<path opacity="0.5" d="M139.236 175.678H67.2905V180.328H139.236V175.678Z" fill="#E0E0E0"/>
<path opacity="0.5" d="M139.236 184.978H67.2905V189.628H139.236V184.978Z" fill="#E0E0E0"/>
<path opacity="0.5" d="M31.6358 191.802C39.1401 191.802 45.2236 186.847 45.2236 180.735C45.2236 174.623 39.1401 169.668 31.6358 169.668C24.1315 169.668 18.0481 174.623 18.0481 180.735C18.0481 186.847 24.1315 191.802 31.6358 191.802Z" fill="#E0E0E0"/>
</g>
<path d="M247.229 27.7329L100.47 28.0219C98.8708 28.0254 97.3388 28.5434 96.2106 29.4622C95.0825 30.381 94.4506 31.6253 94.4539 32.9216L95.1223 251.127C95.1244 251.769 95.2826 252.404 95.5877 252.997C95.8928 253.589 96.3389 254.128 96.9006 254.58C97.4622 255.033 98.1284 255.392 98.8611 255.636C99.5938 255.88 100.379 256.005 101.171 256.003L247.934 255.714C249.53 255.709 251.059 255.191 252.185 254.274C253.311 253.357 253.943 252.115 253.942 250.821L253.273 32.6161C253.272 31.9737 253.115 31.3378 252.811 30.7446C252.506 30.1515 252.061 29.6128 251.499 29.1593C250.938 28.7058 250.272 28.3464 249.539 28.1017C248.806 27.8569 248.021 27.7316 247.229 27.7329Z" fill="url(#paint1_linear)"/>
<path d="M245.597 26.4723L102.12 26.7565C99.0684 26.7626 96.6004 28.7729 96.6079 31.2468L97.2624 248.387C97.2699 250.861 99.7499 252.862 102.802 252.856L246.279 252.571C249.331 252.565 251.799 250.555 251.791 248.081L251.137 30.9407C251.129 28.4668 248.649 26.4663 245.597 26.4723Z" fill="white"/>
<path d="M247.435 89.4842L247.281 36.8984C247.277 35.637 246.655 34.4285 245.552 33.5387C244.449 32.6489 242.955 32.1505 241.399 32.1531L212.688 32.2089C212.249 34.6075 210.765 36.7994 208.506 38.3883C206.246 39.9773 203.36 40.8583 200.369 40.872L146.998 40.9771C144.007 40.9753 141.115 40.1059 138.845 38.526C136.576 36.9461 135.079 34.7601 134.626 32.3633L106.352 32.4191C104.796 32.4226 103.305 32.9268 102.207 33.821C101.11 34.7151 100.495 35.926 100.498 37.1874L100.656 89.8422" fill="#FAFAFA"/>
<path d="M100.656 89.8455L101.114 242.437C101.118 243.699 101.74 244.907 102.843 245.797C103.946 246.687 105.44 247.185 106.996 247.183L242.039 246.917C243.595 246.913 245.086 246.409 246.184 245.515C247.282 244.621 247.897 243.41 247.893 242.148L247.431 89.1164" fill="#FAFAFA"/>
<path d="M142.327 54.0308H113.636V77.2877H142.327V54.0308Z" fill="#E0E0E0"/>
<g opacity="0.5">
<path opacity="0.5" d="M269 96.6071H79.5535V148.845H269V96.6071Z" fill="url(#paint2_linear)"/>
</g>
<path d="M266.748 98.7548H81.8101V147.055H266.748V98.7548Z" fill="white"/>
<path d="M227.512 116.642H155.566V121.293H227.512V116.642Z" fill="#70FF63"/>
<path d="M227.512 125.946H155.566V130.596H227.512V125.946Z" fill="#70FF63"/>
<path d="M227.512 168.164H155.566V172.814H227.512V168.164Z" fill="#E0E0E0"/>
<path d="M227.512 177.464H155.566V182.115H227.512V177.464Z" fill="#EEEEEE"/>
<path d="M207.649 72.6343H175.429V80.8639H207.649V72.6343Z" fill="#70FF63"/>
<path d="M119.912 132.767C127.416 132.767 133.499 127.812 133.499 121.7C133.499 115.588 127.416 110.633 119.912 110.633C112.407 110.633 106.324 115.588 106.324 121.7C106.324 127.812 112.407 132.767 119.912 132.767Z" fill="#F5F5F5"/>
<path d="M125.766 129.447H113.977C113.411 129.45 112.855 129.564 112.356 129.779C111.857 129.994 111.429 130.304 111.108 130.681C113.756 131.913 116.753 132.567 119.806 132.581C122.859 132.595 125.864 131.968 128.529 130.76C128.23 130.379 127.823 130.061 127.343 129.833C126.862 129.604 126.322 129.472 125.766 129.447Z" fill="#70FF63"/>
<path d="M114.078 121.985C114.078 121.985 112.352 126.058 111.408 125.677C111.408 125.677 120.499 132.041 128.524 125.677C127.559 124.339 126.398 123.099 125.069 121.985H114.078Z" fill="#333333"/>
<path d="M119.904 127.079C123.633 127.079 126.657 124.628 126.657 121.605C126.657 118.581 123.633 116.13 119.904 116.13C116.174 116.13 113.15 118.581 113.15 121.605C113.15 124.628 116.174 127.079 119.904 127.079Z" fill="#333333"/>
<path opacity="0.1" d="M117.53 127.552H122.241V129.036C122.241 129.501 122.013 129.947 121.607 130.276C121.202 130.605 120.652 130.79 120.078 130.79H119.673C119.099 130.79 118.549 130.605 118.143 130.276C117.737 129.947 117.509 129.501 117.509 129.036V127.552H117.53Z" fill="black"/>
<path d="M118.028 127.46H121.747C121.879 127.46 122.006 127.502 122.099 127.578C122.193 127.654 122.245 127.757 122.245 127.864V128.944C122.246 129.175 122.19 129.404 122.081 129.617C121.972 129.83 121.813 130.024 121.611 130.187C121.41 130.351 121.171 130.48 120.908 130.568C120.645 130.656 120.363 130.701 120.078 130.701H119.673C119.099 130.701 118.549 130.516 118.143 130.187C117.737 129.859 117.509 129.413 117.509 128.947V127.867C117.509 127.814 117.522 127.761 117.547 127.712C117.572 127.663 117.609 127.619 117.655 127.581C117.701 127.544 117.756 127.514 117.817 127.494C117.877 127.474 117.942 127.463 118.008 127.463L118.028 127.46Z" fill="#FDA57D"/>
<path opacity="0.1" d="M117.538 128.002C119.058 128.458 120.729 128.458 122.249 128.002V127.532H117.538V128.002Z" fill="black"/>
<path d="M119.904 128.264C123.633 128.264 126.657 125.813 126.657 122.79C126.657 119.767 123.633 117.316 119.904 117.316C116.174 117.316 113.15 119.767 113.15 122.79C113.15 125.813 116.174 128.264 119.904 128.264Z" fill="#FDA57D"/>
<path d="M113.434 120.715H126.308C126.308 120.715 125.211 116.501 120.341 116.774C115.471 117.046 113.434 120.715 113.434 120.715Z" fill="#333333"/>
<path d="M113.292 123.512C113.639 123.512 113.92 123.085 113.92 122.557C113.92 122.029 113.639 121.601 113.292 121.601C112.945 121.601 112.664 122.029 112.664 122.557C112.664 123.085 112.945 123.512 113.292 123.512Z" fill="#FDA57D"/>
<path d="M126.479 123.512C126.825 123.512 127.107 123.085 127.107 122.557C127.107 122.029 126.825 121.601 126.479 121.601C126.132 121.601 125.851 122.029 125.851 122.557C125.851 123.085 126.132 123.512 126.479 123.512Z" fill="#FDA57D"/>
<path opacity="0.1" d="M113.434 120.856H126.308C126.308 120.856 125.211 116.642 120.341 116.915C115.471 117.188 113.434 120.856 113.434 120.856Z" fill="black"/>
<path d="M128.739 184.646C136.244 184.646 142.327 179.692 142.327 173.58C142.327 167.467 136.244 162.513 128.739 162.513C121.235 162.513 115.151 167.467 115.151 173.58C115.151 179.692 121.235 184.646 128.739 184.646Z" fill="#E0E0E0"/>
<path d="M128.739 227.223C136.244 227.223 142.327 222.268 142.327 216.156C142.327 210.044 136.244 205.089 128.739 205.089C121.235 205.089 115.151 210.044 115.151 216.156C115.151 222.268 121.235 227.223 128.739 227.223Z" fill="#E0E0E0"/>
<path d="M227.512 209.309H155.566V213.959H227.512V209.309Z" fill="#E0E0E0"/>
<path d="M227.512 218.609H155.566V223.259H227.512V218.609Z" fill="#EEEEEE"/>
<path d="M227.512 54.0308H155.566V58.6808H227.512V54.0308Z" fill="#E0E0E0"/>
<path d="M227.512 63.3342H155.566V67.9842H227.512V63.3342Z" fill="#E0E0E0"/>
<path d="M188.876 34.8067L156.065 35.2059C155.617 35.2113 155.26 35.5098 155.267 35.8725L155.275 36.3026C155.281 36.6653 155.649 36.9549 156.097 36.9495L188.908 36.5502C189.355 36.5448 189.713 36.2464 189.706 35.8837L189.698 35.4535C189.691 35.0908 189.323 34.8012 188.876 34.8067Z" fill="#DBDBDB"/>
<path d="M197.036 36.4547C197.75 36.4461 198.32 35.97 198.309 35.3916C198.298 34.8131 197.711 34.3511 196.998 34.3598C196.284 34.3685 195.714 34.8445 195.725 35.423C195.736 36.0015 196.323 36.4634 197.036 36.4547Z" fill="#DBDBDB"/>
</g>
<defs>
<linearGradient id="paint0_linear" x1="18.0249" y1="233.802" x2="103.544" y2="-17.0254" gradientUnits="userSpaceOnUse">
<stop stop-color="#808080" stop-opacity="0.25"/>
<stop offset="0.54" stop-color="#808080" stop-opacity="0.12"/>
<stop offset="1" stop-color="#808080" stop-opacity="0.1"/>
</linearGradient>
<linearGradient id="paint1_linear" x1="89052" y1="195530" x2="175079" y2="53597.8" gradientUnits="userSpaceOnUse">
<stop stop-color="#808080" stop-opacity="0.25"/>
<stop offset="0.54" stop-color="#808080" stop-opacity="0.12"/>
<stop offset="1" stop-color="#808080" stop-opacity="0.1"/>
</linearGradient>
<linearGradient id="paint2_linear" x1="81575.6" y1="23772.8" x2="81575.6" y2="15463.9" gradientUnits="userSpaceOnUse">
<stop stop-color="#808080" stop-opacity="0.25"/>
<stop offset="0.54" stop-color="#808080" stop-opacity="0.12"/>
<stop offset="1" stop-color="#808080" stop-opacity="0.1"/>
</linearGradient>
<clipPath id="clip0">
<rect width="269" height="256" fill="white"/>
</clipPath>
</defs>
</svg>
