<svg width="273" height="261" viewBox="0 0 273 261" fill="none" xmlns="http://www.w3.org/2000/svg">
<g clip-path="url(#clip0)">
<path d="M132.803 116.299C132.855 116.14 132.898 115.979 132.933 115.817C132.933 115.757 132.933 115.697 132.964 115.641C132.994 115.585 133.003 115.417 133.012 115.305C133.021 115.193 133.012 115.148 133.012 115.069C133.012 114.991 133.012 114.875 133.012 114.778C133.012 114.681 133.012 114.621 133.012 114.546C133.012 114.471 133.012 114.337 132.986 114.232C132.959 114.127 132.964 114.101 132.955 114.038C132.955 113.918 132.912 113.799 132.885 113.664V113.608L123.162 76.0376C116.857 76.7852 120.21 76.1273 116.857 76.7852C113.504 77.443 116.857 76.7852 110.98 78.4222L113.426 87.8709L104.671 76.602C104.177 75.9518 103.523 75.4023 102.754 74.9922C101.986 74.5822 101.122 74.3215 100.223 74.2286C98.0503 74.0296 95.8995 73.6809 93.7919 73.1858C92.3012 72.8159 90.757 72.6284 89.205 72.6289H74.3804C72.827 72.6278 71.2812 72.8153 69.7891 73.1858C67.6815 73.6809 65.5308 74.0296 63.3578 74.2286C62.4592 74.3215 61.5953 74.5822 60.8269 74.9922C60.0585 75.4023 59.4043 75.9518 58.9104 76.602L36.425 105.568L14.7112 80.975C9.51824 83.8941 12.2303 82.0514 9.51824 83.8941C6.8062 85.7367 9.51824 83.8941 4.84412 87.6653L31.7857 118.168C32.3042 118.755 32.9597 119.243 33.7104 119.601C34.4612 119.958 35.2906 120.178 36.1459 120.246H36.2941H36.6778H37.0092H37.2141C37.3798 120.246 37.5499 120.216 37.7199 120.194H37.7417C38.5991 120.078 39.4185 119.809 40.1471 119.405C40.8756 119.001 41.4971 118.47 41.9711 117.846L57.1707 98.7846L59.4598 130.218C59.4598 134.953 64.3258 138.814 69.7368 138.814H93.853C99.264 138.814 103.694 134.942 103.694 130.218L105.569 98.7846L121.619 117.846C121.619 117.869 121.658 117.891 121.675 117.917C121.693 117.944 121.776 118.033 121.828 118.093C121.88 118.153 121.989 118.28 122.081 118.37C122.081 118.392 122.124 118.411 122.142 118.433C122.79 119.071 123.606 119.568 124.523 119.883C124.546 119.889 124.57 119.897 124.592 119.906C124.749 119.954 124.906 120.003 125.068 120.044C125.148 120.065 125.229 120.082 125.312 120.096L125.639 120.164C125.743 120.182 125.852 120.194 125.961 120.209L126.232 120.238H126.541H126.851H127.091C127.226 120.238 127.357 120.238 127.492 120.216L127.64 120.197C127.806 120.197 127.976 120.152 128.141 120.123H128.189C128.378 120.086 128.565 120.039 128.748 119.984H128.769C129.296 119.832 129.796 119.619 130.256 119.353C131.495 118.623 132.39 117.539 132.781 116.295L132.803 116.299Z" fill="url(#paint0_linear)"/>
<path d="M72.7497 235.076H60.6676V247.982H72.7497V235.076Z" fill="url(#paint1_linear)"/>
<path d="M102.752 235.076H90.67V247.982H102.752V235.076Z" fill="url(#paint2_linear)"/>
<path d="M92.074 123.464H72.2918C59.5775 123.464 55.2871 132.288 55.2871 142.709L59.1241 239.438H76.4907V163.393C76.5002 162.212 77.0145 161.075 77.9362 160.198C78.8579 159.32 80.1229 158.763 81.4918 158.631C84.932 158.295 87.8839 160.5 87.8839 163.266V239.438H105.246L109.768 142.709C109.763 132.288 104.784 123.464 92.074 123.464Z" fill="url(#paint3_linear)"/>
<path d="M72.7498 247.986V261.004H55.575C55.2075 261.018 54.8437 260.936 54.5327 260.768C54.2216 260.599 53.9783 260.353 53.8357 260.063C53.693 259.772 53.6579 259.451 53.735 259.143C53.8121 258.834 53.9978 258.554 54.2669 258.339C57.7158 255.618 62.1153 251.331 60.6677 247.986" fill="url(#paint4_linear)"/>
<path d="M90.8619 247.986V261.004H108.041C108.409 261.018 108.772 260.936 109.083 260.768C109.394 260.599 109.638 260.353 109.78 260.063C109.923 259.772 109.958 259.451 109.881 259.143C109.804 258.834 109.618 258.554 109.349 258.339C105.905 255.618 101.501 251.331 102.948 247.986" fill="url(#paint5_linear)"/>
<path d="M72.946 233.906H61.5135V246.678H72.946V233.906Z" fill="#FFD9CB"/>
<path d="M101.335 233.906H89.9027V246.678H101.335V233.906Z" fill="#FFD9CB"/>
<path d="M91.2281 123.464H72.5098C60.4801 123.464 56.4164 132.195 56.4164 142.507L60.0484 238.223H76.482V162.985C76.4682 161.842 76.941 160.734 77.8118 159.867C78.6825 159.001 79.8916 158.437 81.2128 158.28C81.9701 158.202 82.7381 158.262 83.4663 158.456C84.1944 158.651 84.8663 158.976 85.4376 159.409C86.0089 159.842 86.4667 160.374 86.7808 160.97C87.095 161.566 87.2584 162.212 87.2604 162.866V238.223H103.694L107.967 142.507C107.967 132.195 103.258 123.464 91.2281 123.464Z" fill="#212121"/>
<path d="M72.9459 246.678V259.561H56.7086C56.352 259.56 56.0038 259.469 55.7087 259.297C55.4135 259.126 55.185 258.882 55.0523 258.599C54.9196 258.315 54.889 258.004 54.9642 257.705C55.0395 257.406 55.2173 257.134 55.4747 256.922C58.7361 254.231 62.887 249.989 61.531 246.678" fill="#212121"/>
<path d="M90.0858 246.678V259.561H106.341C106.697 259.56 107.045 259.469 107.34 259.297C107.636 259.126 107.864 258.882 107.997 258.599C108.13 258.315 108.16 258.004 108.085 257.705C108.01 257.406 107.832 257.134 107.575 256.922C104.313 254.231 100.162 249.989 101.518 246.678" fill="#212121"/>
<path d="M81.9977 77.2337C105.611 77.2337 124.754 59.9443 124.754 38.6168C124.754 17.2893 105.611 0 81.9977 0C58.3842 0 39.2417 17.2893 39.2417 38.6168C39.2417 59.9443 58.3842 77.2337 81.9977 77.2337Z" fill="url(#paint6_linear)"/>
<path d="M81.9976 75.3088C104.434 75.3088 122.622 58.8813 122.622 38.6168C122.622 18.3524 104.434 1.92487 81.9976 1.92487C59.5617 1.92487 41.3738 18.3524 41.3738 38.6168C41.3738 58.8813 59.5617 75.3088 81.9976 75.3088Z" fill="#62C962"/>
<path d="M81.4004 70.7078C99.9064 70.7078 114.908 57.5484 114.908 41.3154C114.908 25.0824 99.9064 11.9229 81.4004 11.9229C62.8944 11.9229 47.8923 25.0824 47.8923 41.3154C47.8923 57.5484 62.8944 70.7078 81.4004 70.7078Z" fill="#62C962"/>
<path opacity="0.3" d="M81.8364 69.5866C100.342 69.5866 115.344 56.4271 115.344 40.1941C115.344 23.9611 100.342 10.8017 81.8364 10.8017C63.3304 10.8017 48.3284 23.9611 48.3284 40.1941C48.3284 56.4271 63.3304 69.5866 81.8364 69.5866Z" fill="black"/>
<path d="M111.756 57.0785L106.226 73.7063C105.931 74.5936 106.531 75.518 107.566 75.771L115.269 77.6531C116.304 77.9061 117.383 77.3917 117.678 76.5044L123.207 59.8766C123.502 58.9892 122.902 58.0648 121.867 57.8119L114.164 55.9298C113.129 55.6768 112.051 56.1911 111.756 57.0785Z" fill="#BDBDBD"/>
<path d="M7.10138 70.3689L6.43688 70.6587C6.00979 70.845 5.83975 71.2928 6.05708 71.659L10.1069 78.4811C10.3242 78.8472 10.8466 78.9929 11.2737 78.8066L11.9382 78.5168C12.3653 78.3305 12.5353 77.8827 12.318 77.5166L8.2682 70.6945C8.05087 70.3283 7.52847 70.1826 7.10138 70.3689Z" fill="#FFCFBE"/>
<path d="M0.487179 73.7227L0.114385 74.2762C-0.125217 74.6319 0.0169767 75.0868 0.43198 75.2922L8.02181 79.0485C8.43681 79.2539 8.96748 79.132 9.20708 78.7763L9.57987 78.2228C9.81947 77.867 9.67728 77.4121 9.26228 77.2067L1.67245 73.4505C1.25745 73.2451 0.726781 73.3669 0.487179 73.7227Z" fill="#FFCFBE"/>
<path d="M5.57667 78.482C4.59999 78.9567 -0.497077 81.8085 6.05628 87.0262C6.45824 87.3439 6.97685 87.5315 7.5228 87.5567C8.06875 87.582 8.60789 87.4432 9.04738 87.1645L13.6692 84.2304C14.0702 83.9758 14.3663 83.6182 14.5145 83.2097C14.6626 82.8011 14.6552 82.3627 14.4932 81.958L13.1852 78.6539C12.9925 78.1711 12.6657 77.7357 12.233 77.3852C11.8002 77.0348 11.2746 76.7798 10.7013 76.6422C10.128 76.5047 9.52434 76.4886 8.94224 76.5956C8.36015 76.7025 7.81714 76.9292 7.35999 77.2561L5.92548 78.2839C5.81764 78.3603 5.70073 78.4267 5.57667 78.482Z" fill="#FFCFBE"/>
<path d="M121.261 65.8041H120.516C120.036 65.8041 119.648 66.1371 119.648 66.5479V70.9396C119.648 71.3503 120.036 71.6833 120.516 71.6833H121.261C121.74 71.6833 122.129 71.3503 122.129 70.9396V66.5479C122.129 66.1371 121.74 65.8041 121.261 65.8041Z" fill="#FFCFBE"/>
<path d="M115.331 70.3826C115.331 70.3826 106.707 70.5097 112.196 79.835L121.353 78.2353L122.325 70.3864C122.352 70.2024 122.326 70.0156 122.248 69.8426C122.17 69.6696 122.043 69.5158 121.879 69.3951C121.715 69.2744 121.518 69.1904 121.307 69.1508C121.096 69.1111 120.876 69.117 120.668 69.1679L115.331 70.3826Z" fill="#FFCFBE"/>
<path d="M114.662 62.5488L113.987 62.8208C113.553 62.9956 113.367 63.4387 113.571 63.8104L117.513 70.9941C117.717 71.3659 118.234 71.5254 118.667 71.3506L119.342 71.0786C119.776 70.9038 119.962 70.4607 119.758 70.089L115.816 62.9053C115.612 62.5336 115.095 62.374 114.662 62.5488Z" fill="#FFCFBE"/>
<path d="M113.052 63.7042L112.377 63.9762C111.944 64.151 111.757 64.5941 111.961 64.9658L115.27 70.9962C115.474 71.3679 115.991 71.5275 116.425 71.3527L117.099 71.0806C117.533 70.9058 117.719 70.4628 117.515 70.091L114.206 64.0607C114.002 63.6889 113.486 63.5293 113.052 63.7042Z" fill="#FFCFBE"/>
<path d="M111.363 65.6136L110.689 65.8856C110.255 66.0604 110.069 66.5035 110.273 66.8752L113.372 72.5234C113.576 72.8951 114.093 73.0547 114.526 72.8799L115.201 72.6079C115.635 72.433 115.821 71.99 115.617 71.6182L112.518 65.97C112.314 65.5983 111.797 65.4387 111.363 65.6136Z" fill="#FFCFBE"/>
<path d="M109.982 68.0551L109.307 68.3271C108.874 68.502 108.688 68.945 108.892 69.3167L111.527 74.1194C111.731 74.4911 112.248 74.6507 112.681 74.4759L113.356 74.2039C113.79 74.029 113.976 73.586 113.772 73.2143L111.137 68.4116C110.933 68.0399 110.416 67.8803 109.982 68.0551Z" fill="#FFCFBE"/>
<path d="M131.957 115.458C132.005 115.305 132.048 115.148 132.083 114.991C132.083 114.935 132.083 114.879 132.114 114.823C132.144 114.767 132.153 114.606 132.162 114.497C132.17 114.389 132.162 114.344 132.162 114.266C132.162 114.187 132.162 114.079 132.162 113.985C132.162 113.892 132.162 113.836 132.162 113.761C132.162 113.686 132.162 113.556 132.14 113.455C132.118 113.354 132.14 113.331 132.109 113.268C132.079 113.204 132.066 113.036 132.04 112.92C132.04 112.92 132.04 112.883 132.04 112.868L122.421 76.4189C116.186 77.144 119.5 76.5086 116.186 77.144C112.872 77.7793 116.186 77.144 110.369 78.7324L112.789 87.8933L104.134 76.9683C103.639 76.3343 102.99 75.8 102.23 75.4025C101.47 75.0049 100.619 74.7536 99.7349 74.6659C97.5866 74.4742 95.4594 74.1368 93.3734 73.6568C91.8985 73.2967 90.3723 73.1143 88.8388 73.1148H74.1711C72.6376 73.1147 71.1115 73.2971 69.6365 73.6568C67.5505 74.1368 65.4233 74.4742 63.275 74.6659C62.3932 74.7552 61.5445 75.0072 60.7872 75.4047C60.03 75.8022 59.3823 76.3356 58.8886 76.9683L36.6517 105.049L15.1778 81.2067C10.0415 84.0361 12.723 82.2533 10.0415 84.0361C7.35996 85.8189 10.0415 84.0361 5.41968 87.6952L32.0604 117.271C32.5773 117.844 33.2275 118.319 33.9698 118.666C34.7121 119.013 35.5303 119.224 36.3726 119.285C36.4206 119.285 36.4729 119.285 36.5209 119.285H36.9002H37.2229H37.4278C37.5935 119.285 37.7592 119.259 37.9292 119.237H37.9598C38.8029 119.127 39.6104 118.868 40.3309 118.477C41.0514 118.086 41.6693 117.571 42.1455 116.964L58.0166 96.8822L59.8348 128.954C59.8429 131.166 60.8714 133.284 62.6957 134.847C64.52 136.41 66.9918 137.291 69.5711 137.297H93.417C95.9963 137.291 98.4681 136.41 100.292 134.847C102.117 133.284 103.145 131.166 103.153 128.954L104.967 96.8822L120.891 116.972L120.952 117.039L121.1 117.207C121.178 117.301 121.261 117.394 121.348 117.48L121.414 117.54C122.058 118.159 122.863 118.641 123.764 118.945C123.788 118.951 123.811 118.958 123.834 118.968C123.991 119.016 124.148 119.065 124.305 119.102L124.544 119.155L124.867 119.218C124.972 119.237 125.081 119.248 125.185 119.259L125.456 119.289H125.765H126.066H126.306C126.437 119.289 126.572 119.289 126.703 119.267L126.847 119.248C127.012 119.229 127.178 119.207 127.344 119.177H127.392C127.575 119.14 127.762 119.095 127.945 119.046C128.465 118.9 128.96 118.694 129.415 118.433C130.635 117.736 131.522 116.685 131.913 115.473L131.957 115.458Z" fill="#62C962"/>
<path d="M81.5093 66.2227C97.7469 66.2227 110.91 54.9391 110.91 41.0201C110.91 27.1011 97.7469 15.8175 81.5093 15.8175C65.2717 15.8175 52.1085 27.1011 52.1085 41.0201C52.1085 54.9391 65.2717 66.2227 81.5093 66.2227Z" fill="#E53935"/>
<path d="M87.9929 65.2472C87.9929 62.4068 85.3078 60.1043 81.9955 60.1043C78.6832 60.1043 75.998 62.4068 75.998 65.2472V74.0193C75.998 76.8597 78.6832 79.1623 81.9955 79.1623C85.3078 79.1623 87.9929 76.8597 87.9929 74.0193V65.2472Z" fill="#FFE0B2"/>
<path d="M81.5094 64.8809C94.0674 64.8809 104.248 56.1542 104.248 45.3894C104.248 34.6245 94.0674 25.8978 81.5094 25.8978C68.9513 25.8978 58.771 34.6245 58.771 45.3894C58.771 56.1542 68.9513 64.8809 81.5094 64.8809Z" fill="#FFE0B2"/>
<path d="M73.9269 41.1883C74.6854 41.1883 75.3004 40.6612 75.3004 40.011C75.3004 39.3607 74.6854 38.8336 73.9269 38.8336C73.1684 38.8336 72.5535 39.3607 72.5535 40.011C72.5535 40.6612 73.1684 41.1883 73.9269 41.1883Z" fill="#DB7657"/>
<path d="M89.0873 41.1883C89.8459 41.1883 90.4608 40.6612 90.4608 40.011C90.4608 39.3607 89.8459 38.8336 89.0873 38.8336C88.3288 38.8336 87.7139 39.3607 87.7139 40.011C87.7139 40.6612 88.3288 41.1883 89.0873 41.1883Z" fill="#DB7657"/>
<path d="M87.1253 51.9488C87.1253 53.5224 84.6094 54.8006 81.505 54.8006C78.4005 54.8006 75.8934 53.5074 75.8934 51.9488C75.8934 50.3903 87.1253 50.3753 87.1253 51.9488Z" fill="white"/>
<path d="M70.2687 24.2196C70.2687 24.2196 66.6105 39.9175 105.813 36.7667L96.142 23.1021L70.2687 24.2196Z" fill="#E53935"/>
<path d="M60.13 47.4894C61.3526 47.1158 61.7347 45.3487 60.9835 43.5423C60.2324 41.736 58.6323 40.5746 57.4097 40.9482C56.1872 41.3218 55.805 43.0889 56.5562 44.8952C57.3073 46.7016 58.9074 47.863 60.13 47.4894Z" fill="#FFCFBE"/>
<path d="M84.8405 38.8374H79.1548V41.1883H84.8405V38.8374Z" fill="#62C962"/>
<path d="M116.543 62.0665C117.22 62.0665 117.769 61.5963 117.769 61.0162C117.769 60.4362 117.22 59.966 116.543 59.966C115.867 59.966 115.318 60.4362 115.318 61.0162C115.318 61.5963 115.867 62.0665 116.543 62.0665Z" fill="white"/>
<path d="M80.5501 99.3602C78.8919 97.9457 76.646 97.1537 74.3066 97.1587C71.9671 97.1636 69.7258 97.9649 68.0756 99.3864C66.4255 100.808 65.5016 102.733 65.5074 104.738C65.5131 106.744 66.4479 108.665 68.1062 110.08L80.6112 120.743L93.0508 110.027C93.8918 109.328 94.5619 108.493 95.0221 107.569C95.4822 106.646 95.7232 105.653 95.7309 104.649C95.7386 103.645 95.5128 102.649 95.0669 101.721C94.6209 100.792 93.9636 99.9489 93.1334 99.2404C92.3031 98.532 91.3166 97.9724 90.2313 97.5943C89.1461 97.2162 87.9838 97.0272 86.8124 97.0384C85.6411 97.0496 84.484 97.2606 83.4088 97.6593C82.3336 98.0579 81.3618 98.6361 80.5501 99.3602Z" fill="white"/>
<path d="M107.228 45.6216C107.988 43.819 107.616 42.051 106.396 41.6728C105.176 41.2945 103.57 42.4491 102.81 44.2517C102.049 46.0543 102.421 47.8223 103.642 48.2006C104.862 48.5788 106.467 47.4242 107.228 45.6216Z" fill="#FFCFBE"/>
<path d="M73.0157 73.1111C73.9356 73.1111 74.6813 72.4719 74.6813 71.6833C74.6813 70.8948 73.9356 70.2556 73.0157 70.2556C72.0958 70.2556 71.3501 70.8948 71.3501 71.6833C71.3501 72.4719 72.0958 73.1111 73.0157 73.1111Z" fill="white"/>
<path d="M73.1683 71.6833H72.7323C72.4553 71.6833 72.2308 71.8758 72.2308 72.1132V85.8712C72.2308 86.1086 72.4553 86.3011 72.7323 86.3011H73.1683C73.4452 86.3011 73.6697 86.1086 73.6697 85.8712V72.1132C73.6697 71.8758 73.4452 71.6833 73.1683 71.6833Z" fill="white"/>
<path d="M91.808 73.1111C92.7279 73.1111 93.4736 72.4719 93.4736 71.6833C93.4736 70.8948 92.7279 70.2556 91.808 70.2556C90.8882 70.2556 90.1425 70.8948 90.1425 71.6833C90.1425 72.4719 90.8882 73.1111 91.808 73.1111Z" fill="white"/>
<path d="M92.0261 71.6833H91.59C91.3131 71.6833 91.0886 71.8758 91.0886 72.1132V83.4343C91.0886 83.6717 91.3131 83.8642 91.59 83.8642H92.0261C92.303 83.8642 92.5275 83.6717 92.5275 83.4343V72.1132C92.5275 71.8758 92.303 71.6833 92.0261 71.6833Z" fill="white"/>
<path d="M69.122 49.5007C75.2361 49.5007 80.1925 45.252 80.1925 40.011C80.1925 34.7699 75.2361 30.5212 69.122 30.5212C63.008 30.5212 58.0515 34.7699 58.0515 40.011C58.0515 45.252 63.008 49.5007 69.122 49.5007Z" fill="#62C962"/>
<path opacity="0.3" d="M69.122 46.6601C73.4059 46.6601 76.8788 43.6832 76.8788 40.0109C76.8788 36.3387 73.4059 33.3618 69.122 33.3618C64.8381 33.3618 61.3652 36.3387 61.3652 40.0109C61.3652 43.6832 64.8381 46.6601 69.122 46.6601Z" fill="black"/>
<path d="M94.7425 49.5007C100.857 49.5007 105.813 45.252 105.813 40.011C105.813 34.7699 100.857 30.5212 94.7425 30.5212C88.6284 30.5212 83.672 34.7699 83.672 40.011C83.672 45.252 88.6284 49.5007 94.7425 49.5007Z" fill="#62C962"/>
<path opacity="0.3" d="M94.7425 46.6601C99.0264 46.6601 102.499 43.6832 102.499 40.0109C102.499 36.3387 99.0264 33.3618 94.7425 33.3618C90.4585 33.3618 86.9857 36.3387 86.9857 40.0109C86.9857 43.6832 90.4585 46.6601 94.7425 46.6601Z" fill="black"/>
<path d="M271.417 189.847C271.273 198.612 262.645 205.545 252.416 205.545H250.994C249.736 205.54 248.525 205.959 247.624 206.711C246.939 207.262 246.462 207.975 246.255 208.76C246.158 209.076 246.11 209.401 246.111 209.728V225.205C246.116 228.18 245.123 231.094 243.251 233.6C240.527 237.149 239.05 241.294 238.995 245.541C238.995 246.533 238.765 247.516 238.318 248.431C237.87 249.346 237.215 250.175 236.39 250.871C235.565 251.567 234.587 252.115 233.512 252.483C232.437 252.852 231.288 253.033 230.131 253.016C225.335 252.942 221.598 249.417 221.598 245.317V241.426L219.226 241.665V245.541C219.226 246.534 218.996 247.516 218.548 248.432C218.101 249.347 217.445 250.177 216.62 250.873C215.794 251.568 214.815 252.116 213.74 252.484C212.665 252.852 211.515 253.033 210.357 253.016C205.561 252.942 201.824 249.417 201.824 245.317V243.34C199.452 244.185 186.01 244.185 182.278 243.366L181.266 243.299V245.541C181.266 246.534 181.036 247.516 180.588 248.432C180.141 249.347 179.485 250.177 178.66 250.873C177.834 251.568 176.855 252.116 175.78 252.484C174.705 252.852 173.555 253.033 172.397 253.016C167.601 252.942 163.865 249.417 163.865 245.317V242.095L163.075 242.035V245.56C163.079 246.553 162.851 247.537 162.405 248.453C161.959 249.369 161.304 250.2 160.478 250.897C159.653 251.593 158.673 252.141 157.597 252.508C156.52 252.875 155.369 253.055 154.211 253.035C149.851 252.968 146.332 250.019 145.757 246.379C145.706 246.033 145.68 245.684 145.678 245.336V229.103C145.674 223.547 147.847 218.151 151.848 213.779C152.542 213.005 152.931 212.061 152.958 211.085C152.985 210.108 152.648 209.15 151.996 208.349C147.566 202.791 141.022 193.398 141.231 186.76C141.288 184.835 141.907 183.146 143.306 181.838C143.394 181.756 143.481 181.673 143.568 181.599C149.938 175.88 161.161 180.38 160.189 188.244C159.862 190.874 160.089 193.532 160.86 196.093C161.307 197.542 161.91 198.952 162.661 200.305C163.404 201.666 164.628 202.792 166.16 203.522C167.692 204.252 169.454 204.549 171.194 204.372C172.378 204.25 173.569 204.189 174.761 204.189H211.338C213.485 204.188 215.578 203.611 217.323 202.539C219.068 201.466 220.377 199.952 221.066 198.208C221.436 197.295 221.623 196.335 221.62 195.368V170.973C221.619 170.337 221.768 169.707 222.057 169.122C222.346 168.536 222.769 168.006 223.301 167.563C223.833 167.121 224.464 166.774 225.156 166.544C225.847 166.315 226.586 166.206 227.327 166.226C228.051 166.247 228.762 166.393 229.418 166.655C230.074 166.917 230.662 167.29 231.147 167.751C232.138 168.687 232.688 169.906 232.69 171.171C232.69 171.501 232.766 171.828 232.914 172.133C233.061 172.438 233.277 172.715 233.55 172.948C233.822 173.181 234.146 173.366 234.502 173.492C234.858 173.618 235.239 173.683 235.625 173.682H252.856C255.32 173.681 257.76 174.1 260.033 174.915C262.306 175.73 264.368 176.924 266.097 178.429C267.826 179.933 269.189 181.718 270.107 183.678C271.024 185.638 271.477 187.736 271.439 189.847H271.417Z" fill="#F3AD55"/>
<path d="M162.805 247.391C162.315 249.018 161.201 250.455 159.642 251.472C158.083 252.489 156.17 253.027 154.211 252.998C149.851 252.931 146.332 249.982 145.757 246.341C151.024 245.123 158.323 244.282 162.805 247.391Z" fill="#FBDCA3"/>
<path d="M180.996 247.391C180.506 249.018 179.391 250.456 177.831 251.473C176.271 252.491 174.357 253.028 172.397 252.998C168.037 252.931 164.523 249.982 163.947 246.341C169.201 245.123 176.513 244.282 180.996 247.391Z" fill="#FBDCA3"/>
<path d="M218.956 247.391C218.466 249.018 217.351 250.456 215.791 251.473C214.231 252.491 212.317 253.028 210.357 252.998C205.997 252.931 202.483 249.982 201.907 246.341C207.174 245.123 214.473 244.282 218.956 247.391Z" fill="#FBDCA3"/>
<path d="M238.725 247.391C238.235 249.018 237.121 250.455 235.562 251.472C234.003 252.489 232.09 253.027 230.131 252.998C225.77 252.931 222.252 249.982 221.676 246.341C226.943 245.123 234.242 244.282 238.725 247.391Z" fill="#FBDCA3"/>
<path d="M160.86 196.089C154.717 193.974 147.217 190.109 141.24 186.745C141.296 184.82 141.915 183.131 143.315 181.823C143.402 181.741 143.489 181.658 143.577 181.584C149.947 175.865 161.17 180.365 160.198 188.229C159.866 190.862 160.091 193.524 160.86 196.089Z" fill="#FBDCA3"/>
<path d="M168.299 204.233C168.299 204.233 185.221 222.492 212.899 204.189L168.299 204.233Z" fill="#FBDCA3"/>
<path d="M221.598 170.296C221.598 170.296 231.879 181.819 221.598 196.056V170.296Z" fill="#FBDCA3"/>
<path d="M246.111 209.612C246.111 209.612 237.059 219.259 245.997 226.921L246.111 209.612Z" fill="#FBDCA3"/>
<path opacity="0.1" d="M246.904 207.579C246.233 208.121 246.468 208.644 246.255 209.447L216.854 202.847C218.432 201.8 220.394 200.559 221.044 198.907C224.576 201.24 231.552 205.172 246.904 207.579Z" fill="black"/>
<path d="M247.624 206.711C246.939 207.262 246.462 207.975 246.255 208.76L217.599 202.353C219.201 201.297 220.401 199.857 221.048 198.216C224.576 200.563 232.258 204.304 247.624 206.711Z" fill="#383F4D"/>
<path opacity="0.1" d="M222.121 199.573C222.121 199.573 231.086 205.355 246.102 207.145L222.121 199.573Z" fill="black"/>
<path d="M222.121 198.9C222.121 198.9 231.086 204.678 246.102 206.468L222.121 198.9Z" fill="#F3AD55"/>
<path opacity="0.1" d="M244.532 199.446C244.532 199.446 259.558 203.512 263.512 190.632L244.532 199.446Z" fill="black"/>
<path d="M244.532 198.765C244.532 198.765 259.558 202.836 263.512 189.952L244.532 198.765Z" fill="#FBDCA3"/>
<path d="M271.422 190.632C272.296 190.632 273.004 189.57 273.004 188.259C273.004 186.948 272.296 185.886 271.422 185.886C270.547 185.886 269.839 186.948 269.839 188.259C269.839 189.57 270.547 190.632 271.422 190.632Z" fill="#383F4D"/>
<path opacity="0.1" d="M151.608 237.068L154.774 215.39C154.774 215.39 145.281 228.27 151.608 237.068Z" fill="black"/>
<path d="M155.563 215.375C155.563 215.375 146.075 228.255 152.402 237.053L155.563 215.375Z" fill="#FBDCA3"/>
</g>
<defs>
<linearGradient id="paint0_linear" x1="68.9432" y1="138.833" x2="68.9432" y2="72.629" gradientUnits="userSpaceOnUse">
<stop stop-color="#808080" stop-opacity="0.25"/>
<stop offset="0.54" stop-color="#808080" stop-opacity="0.12"/>
<stop offset="1" stop-color="#808080" stop-opacity="0.1"/>
</linearGradient>
<linearGradient id="paint1_linear" x1="1741.77" y1="8575.11" x2="2076.68" y2="8575.11" gradientUnits="userSpaceOnUse">
<stop stop-color="#808080" stop-opacity="0.25"/>
<stop offset="0.54" stop-color="#808080" stop-opacity="0.12"/>
<stop offset="1" stop-color="#808080" stop-opacity="0.1"/>
</linearGradient>
<linearGradient id="paint2_linear" x1="2603.14" y1="8575.11" x2="2937.93" y2="8575.11" gradientUnits="userSpaceOnUse">
<stop stop-color="#808080" stop-opacity="0.25"/>
<stop offset="0.54" stop-color="#808080" stop-opacity="0.12"/>
<stop offset="1" stop-color="#808080" stop-opacity="0.1"/>
</linearGradient>
<linearGradient id="paint3_linear" x1="22595.5" y1="68121.3" x2="29402.9" y2="68121.3" gradientUnits="userSpaceOnUse">
<stop stop-color="#808080" stop-opacity="0.25"/>
<stop offset="0.54" stop-color="#808080" stop-opacity="0.12"/>
<stop offset="1" stop-color="#808080" stop-opacity="0.1"/>
</linearGradient>
<linearGradient id="paint4_linear" x1="7867.27" y1="10426" x2="8700.53" y2="10426" gradientUnits="userSpaceOnUse">
<stop stop-color="#808080" stop-opacity="0.25"/>
<stop offset="0.54" stop-color="#808080" stop-opacity="0.12"/>
<stop offset="1" stop-color="#808080" stop-opacity="0.1"/>
</linearGradient>
<linearGradient id="paint5_linear" x1="9531.38" y1="10426" x2="10364.8" y2="10426" gradientUnits="userSpaceOnUse">
<stop stop-color="#808080" stop-opacity="0.25"/>
<stop offset="0.54" stop-color="#808080" stop-opacity="0.12"/>
<stop offset="1" stop-color="#808080" stop-opacity="0.1"/>
</linearGradient>
<linearGradient id="paint6_linear" x1="16120.6" y1="15960.3" x2="16120.6" y2="0" gradientUnits="userSpaceOnUse">
<stop stop-color="#808080" stop-opacity="0.25"/>
<stop offset="0.54" stop-color="#808080" stop-opacity="0.12"/>
<stop offset="1" stop-color="#808080" stop-opacity="0.1"/>
</linearGradient>
<clipPath id="clip0">
<rect width="273" height="261" fill="white"/>
</clipPath>
</defs>
</svg>
